<?xml version="1.0" encoding="utf-8"?>
<!-- Generator: Adobe Illustrator 17.0.1, SVG Export Plug-In . SVG Version: 6.00 Build 0)  -->
<!DOCTYPE svg PUBLIC "-//W3C//DTD SVG 1.0//EN" "http://www.w3.org/TR/2001/REC-SVG-20010904/DTD/svg10.dtd">
<svg version="1.0" id="Слой_1" xmlns="http://www.w3.org/2000/svg" xmlns:xlink="http://www.w3.org/1999/xlink" x="0px" y="0px"
	 width="192.14px" height="127.496px" viewBox="0 0 192.14 127.496" enable-background="new 0 0 192.14 127.496"
	 xml:space="preserve">
<g>
	<g>
		<g opacity="0.5">
			<polygon fill="#B9DDE9" points="170.554,28.363 170.554,127.496 192.14,127.496 192.14,1.757 171.81,1.757 135.415,31.877 
				146.96,47.69 			"/>
		</g>
		<g opacity="0.5">
			<path fill="#B9DDE9" d="M22.127,127.496c-0.023-0.573-0.039-1.152-0.039-1.745v-75.3c0-5.522,0.961-10.205,2.887-14.056
				c1.921-3.848,4.393-6.985,7.404-9.413c3.012-2.424,6.315-4.142,9.915-5.146c3.596-1.004,7.067-1.506,10.417-1.506
				c3.345,0,6.816,0.502,10.417,1.506c3.596,1.004,6.902,2.722,9.915,5.146c3.012,2.428,5.522,5.565,7.53,9.413
				c2.008,3.851,3.012,8.534,3.012,14.056v75.3c0,0.593-0.018,1.172-0.04,1.745h21.626V45.18c0-7.028-1.545-13.342-4.632-18.95
				c-3.09-5.605-7.138-10.374-12.146-14.307c-5.008-3.93-10.644-6.902-16.903-8.911C65.229,1.004,58.926,0,52.584,0
				c-6.346,0-12.648,1.004-18.907,3.012c-6.259,2.008-11.895,4.981-16.903,8.911c-5.008,3.934-9.056,8.703-12.142,14.307
				C1.541,31.837,0,38.152,0,45.18v82.316H22.127z"/>
		</g>
	</g>
</g>
</svg>
