<?xml version="1.0" encoding="utf-8"?>
<!-- Generator: Adobe Illustrator 17.0.1, SVG Export Plug-In . SVG Version: 6.00 Build 0)  -->
<!DOCTYPE svg PUBLIC "-//W3C//DTD SVG 1.0//EN" "http://www.w3.org/TR/2001/REC-SVG-20010904/DTD/svg10.dtd">
<svg version="1.0" id="Слой_1" xmlns="http://www.w3.org/2000/svg" xmlns:xlink="http://www.w3.org/1999/xlink" x="0px" y="0px"
	 width="233.581px" height="127.496px" viewBox="0 0 233.581 127.496" enable-background="new 0 0 233.581 127.496"
	 xml:space="preserve">
<g>
	<path opacity="0.5" fill="#B9DDE9" d="M158.281,23.97c6.024-2.424,12.55-3.64,19.578-3.64c4.016,0,7.989,0.506,11.923,1.51
		c3.93,1.004,7.487,2.557,10.667,4.651c3.177,2.094,5.73,4.777,7.655,8.043c1.922,3.271,2.887,7.166,2.887,11.691
		c0,4.189-1.09,8.295-3.263,12.318c-2.177,4.024-5.106,7.918-8.785,11.691c-3.683,3.772-7.824,7.416-12.424,10.934
		c-4.604,3.522-9.33,6.788-14.182,9.805c-5.69,3.859-11.13,8.008-16.315,12.448c-5.189,4.44-9.789,9.26-13.805,14.456
		c-2.364,3.059-4.431,6.267-6.215,9.617h24.832c1.358-1.638,2.791-3.233,4.349-4.757c3.765-3.679,7.695-7.028,11.797-10.04
		c4.099-3.012,7.738-5.604,10.918-7.781c4.518-3.012,9.413-6.608,14.684-10.793c5.271-4.181,10.205-8.824,14.809-13.931
		c4.6-5.103,8.448-10.581,11.546-16.44c3.094-5.855,4.644-11.962,4.644-18.323c0-8.197-1.592-15.186-4.769-20.958
		c-3.181-5.773-7.365-10.456-12.55-14.056c-5.189-3.597-11.13-6.232-17.821-7.907C191.746,0.839,184.887,0,177.858,0
		c-9.707,0-18.492,1.655-26.355,4.961c-7.867,3.306-14.644,7.353-20.331,12.146l11.295,16.276
		C146.985,29.536,152.256,26.398,158.281,23.97z"/>
	<path opacity="0.5" fill="#B9DDE9" d="M22.127,127.496c-0.022-0.573-0.039-1.152-0.039-1.745v-75.3
		c0-5.522,0.961-10.205,2.887-14.056c1.921-3.848,4.393-6.985,7.404-9.413c3.012-2.424,6.314-4.142,9.915-5.146
		c3.596-1.004,7.067-1.506,10.417-1.506c3.345,0,6.817,0.502,10.417,1.506c3.596,1.004,6.902,2.722,9.915,5.146
		c3.012,2.428,5.522,5.565,7.53,9.413c2.008,3.851,3.012,8.534,3.012,14.056v75.3c0,0.593-0.018,1.172-0.04,1.745h21.626V45.18
		c0-7.028-1.545-13.342-4.632-18.95c-3.09-5.605-7.138-10.374-12.146-14.307c-5.008-3.93-10.644-6.902-16.903-8.911
		C65.229,1.004,58.926,0,52.584,0c-6.346,0-12.648,1.004-18.907,3.012c-6.259,2.008-11.895,4.981-16.903,8.911
		c-5.008,3.934-9.056,8.703-12.142,14.307C1.541,31.837,0,38.152,0,45.18v82.316H22.127z"/>
</g>
</svg>
