<?xml version="1.0" encoding="utf-8"?>
<!-- Generator: Adobe Illustrator 17.0.1, SVG Export Plug-In . SVG Version: 6.00 Build 0)  -->
<!DOCTYPE svg PUBLIC "-//W3C//DTD SVG 1.0//EN" "http://www.w3.org/TR/2001/REC-SVG-20010904/DTD/svg10.dtd">
<svg version="1.0" id="Слой_1" xmlns="http://www.w3.org/2000/svg" xmlns:xlink="http://www.w3.org/1999/xlink" x="0px" y="0px"
	 width="227.33px" height="141.419px" viewBox="0 0 227.33 141.419" enable-background="new 0 0 227.33 141.419"
	 xml:space="preserve">
<g>
	<g>
		<path fill="#0689BD" d="M187.395,52.643c0.284,0.128,0.347,0.042,0.14-0.19l-17.92-20.166c-0.207-0.233-0.6-0.546-0.874-0.696
			l-5.873-3.215c-0.273-0.15-0.707-0.128-0.964,0.048l-2.786,1.914c-0.257,0.176-0.639,0.132-0.849-0.098l-10.073-11.039
			c-0.21-0.23-0.588-0.568-0.84-0.752l-5.234-3.806c-0.253-0.184-0.679-0.205-0.948-0.047l-6.818,3.999
			c-0.269,0.158-0.666,0.103-0.882-0.123l-11.87-12.383c-0.216-0.225-0.587-0.574-0.826-0.775l-6.13-5.174
			c-0.238-0.201-0.612-0.184-0.831,0.038L97.57,16.621c-0.218,0.223-0.638,0.321-0.932,0.219l-9.125-3.176
			c-0.294-0.103-0.716-0.006-0.938,0.213L64.978,35.3c-0.221,0.219-0.653,0.447-0.959,0.506l-10.047,1.929
			c-0.306,0.059-0.73,0.293-0.943,0.522L39.803,52.461c-0.212,0.228-0.14,0.35,0.162,0.27l15.072-3.986
			c0.301-0.08,0.741-0.312,0.977-0.515l13.97-12.048c0.236-0.204,0.647-0.237,0.913-0.075l9.104,5.551
			c0.266,0.162,0.637,0.091,0.824-0.158l13.252-17.614c0.188-0.249,0.58-0.362,0.871-0.251l14.661,5.592
			c0.291,0.111,0.642-0.027,0.777-0.308l9.495-19.533c0.136-0.28,0.418-0.32,0.626-0.087l14.523,16.238
			c0.208,0.232,0.62,0.342,0.916,0.243l10.088-3.376c0.295-0.099,0.693,0.022,0.883,0.27l13.235,17.243
			c0.19,0.247,0.539,0.284,0.776,0.081l5.586-4.786c0.237-0.203,0.612-0.189,0.835,0.029l15.27,15.029
			c0.223,0.219,0.637,0.502,0.921,0.631L187.395,52.643z"/>
	</g>
	<path fill="none" d="M114.452,140.355c55.666,0,100.793-28.5,100.793-63.658c0-35.157-45.127-63.659-100.793-63.659
		c-4.471,0-8.872,0.183-13.189,0.54c-49.434,4.08-87.602,30.784-87.602,63.119C13.661,111.856,58.785,140.355,114.452,140.355z"/>
	<g>
		<g>
			<path fill="#0689BD" stroke="#0689BD" stroke-miterlimit="10" d="M97.762,87.188c0,0.69,0.203,1.282,0.606,1.778
				c0.403,0.497,0.908,0.954,1.512,1.374c0.605,0.42,1.265,0.832,1.98,1.236c0.714,0.403,1.373,0.861,1.979,1.373
				c0.606,0.514,1.109,1.115,1.514,1.804c0.402,0.69,0.604,1.53,0.604,2.521c0,0.656-0.118,1.269-0.354,1.841
				c-0.235,0.571-0.567,1.067-0.995,1.487c-0.429,0.42-0.938,0.748-1.525,0.983c-0.588,0.235-1.228,0.353-1.917,0.353
				c-0.638,0-1.185-0.063-1.638-0.189c-0.455-0.126-0.832-0.274-1.134-0.441c-0.354-0.185-0.648-0.395-0.883-0.63
				c-0.135,0.252-0.316,0.487-0.543,0.706c-0.228,0.218-0.467,0.361-0.719,0.428h-0.378c0.016-0.235,0.034-0.487,0.05-0.757
				c0.018-0.217,0.034-0.461,0.05-0.73c0.017-0.27,0.026-0.53,0.026-0.782c0-0.286-0.009-0.566-0.026-0.844
				c-0.016-0.278-0.032-0.533-0.05-0.769c-0.016-0.269-0.034-0.529-0.05-0.782h0.378c0.387,1.395,0.946,2.458,1.678,3.189
				c0.73,0.732,1.726,1.098,2.987,1.098c1.009,0,1.828-0.324,2.458-0.971c0.631-0.647,0.945-1.542,0.945-2.686
				c0-0.688-0.201-1.282-0.604-1.777c-0.404-0.495-0.908-0.954-1.513-1.374c-0.605-0.42-1.265-0.833-1.979-1.236
				c-0.714-0.404-1.374-0.861-1.979-1.374c-0.606-0.513-1.11-1.113-1.514-1.803c-0.402-0.689-0.604-1.529-0.604-2.522
				c0-0.57,0.109-1.108,0.328-1.613c0.218-0.504,0.52-0.945,0.907-1.323c0.386-0.378,0.84-0.677,1.361-0.896
				c0.522-0.219,1.085-0.327,1.689-0.327c0.505,0,0.951,0.067,1.338,0.202c0.387,0.134,0.714,0.277,0.983,0.428
				c0.302,0.185,0.579,0.395,0.832,0.631c0.135-0.252,0.315-0.488,0.541-0.706c0.229-0.219,0.467-0.361,0.719-0.429h0.378
				c-0.034,0.253-0.059,0.504-0.075,0.757c-0.016,0.235-0.03,0.483-0.038,0.744c-0.009,0.261-0.013,0.516-0.013,0.769
				c0,0.286,0.004,0.567,0.013,0.845c0.008,0.276,0.022,0.534,0.038,0.769c0.016,0.268,0.042,0.529,0.075,0.782h-0.378
				c-0.387-1.396-0.925-2.459-1.614-3.19c-0.69-0.731-1.538-1.097-2.546-1.097c-0.823,0-1.512,0.286-2.067,0.857
				C98.04,85.466,97.762,86.23,97.762,87.188z"/>
			<path fill="#0689BD" stroke="#0689BD" stroke-miterlimit="10" d="M112.135,95.257v5.673l1.513,0.378v0.252h-5.169v-0.252
				l1.514-0.378V84.541l-1.514-0.379v-0.252h4.538c1.042,0,1.972,0.144,2.786,0.429c0.816,0.286,1.501,0.68,2.056,1.185
				c0.554,0.504,0.979,1.101,1.273,1.79c0.294,0.69,0.441,1.445,0.441,2.27c0,0.824-0.147,1.58-0.441,2.269
				c-0.294,0.689-0.719,1.286-1.273,1.79c-0.555,0.504-1.239,0.899-2.056,1.185c-0.814,0.286-1.744,0.429-2.786,0.429H112.135z
				 M112.135,94.753h0.882c1.328,0,2.353-0.403,3.076-1.21c0.724-0.807,1.085-2.127,1.085-3.958c0-1.832-0.361-3.152-1.085-3.959
				c-0.723-0.807-1.748-1.21-3.076-1.21h-0.882V94.753z"/>
			<path fill="#0689BD" stroke="#0689BD" stroke-miterlimit="10" d="M128.07,96.392h-5.169l-1.262,4.287l1.639,0.63v0.252h-3.781
				v-0.252l1.639-0.63l4.917-17.146h0.378l5.295,17.397l1.513,0.378v0.252h-5.294v-0.252l1.513-0.378L128.07,96.392z
				 M123.027,95.913h4.892l-2.521-8.347L123.027,95.913z"/>
		</g>
	</g>
	<g>
		<path fill="#0689BD" stroke="#0689BD" stroke-miterlimit="10" d="M89.945,61.971h-5.654l-1.379,4.687l1.793,0.689v0.276h-4.137
			v-0.276l1.793-0.689l5.378-18.752h0.414l5.791,19.029l1.654,0.413v0.276h-5.792v-0.276l1.656-0.413L89.945,61.971z M84.43,61.446
			h5.35l-2.758-9.128L84.43,61.446z"/>
		<path fill="#0689BD" stroke="#0689BD" stroke-miterlimit="10" d="M99.872,66.934V49.007l-1.655-0.413v-0.277h3.86v18.616
			l1.655,0.413v0.276h-5.516v-0.276L99.872,66.934z"/>
		<path fill="#0689BD" stroke="#0689BD" stroke-miterlimit="10" d="M108.31,55.626l-1.655-0.414v-0.275h3.862v1.655
			c0.183-0.368,0.432-0.707,0.744-1.021c0.258-0.257,0.588-0.497,0.993-0.717c0.404-0.221,0.882-0.331,1.434-0.331
			c0.588,0,1.171,0.152,1.752,0.455c0.579,0.304,1.093,0.746,1.544,1.323c0.449,0.58,0.817,1.288,1.103,2.124
			c0.285,0.837,0.427,1.789,0.427,2.855c0,1.067-0.142,2.017-0.427,2.854c-0.285,0.837-0.667,1.545-1.145,2.125
			c-0.478,0.578-1.02,1.02-1.627,1.323c-0.607,0.304-1.242,0.455-1.903,0.455c-0.533,0-0.979-0.069-1.336-0.207
			c-0.359-0.138-0.659-0.299-0.897-0.483c-0.276-0.202-0.496-0.432-0.662-0.689v6.895l1.654,0.413v0.275h-5.516v-0.275l1.655-0.413
			V55.626z M112.999,67.485c0.385,0,0.758-0.101,1.117-0.304c0.358-0.202,0.679-0.546,0.965-1.034
			c0.284-0.486,0.514-1.125,0.688-1.916c0.176-0.791,0.264-1.774,0.264-2.95c0-1.177-0.088-2.161-0.264-2.952
			c-0.174-0.79-0.395-1.425-0.662-1.903c-0.266-0.477-0.56-0.821-0.882-1.034c-0.322-0.211-0.638-0.316-0.951-0.316
			c-0.46,0-0.855,0.128-1.186,0.386c-0.332,0.257-0.616,0.543-0.855,0.855c-0.275,0.368-0.516,0.781-0.716,1.241v8.274
			c0.166,0.313,0.368,0.588,0.606,0.827c0.203,0.204,0.459,0.392,0.773,0.565C112.209,67.398,112.576,67.485,112.999,67.485z"/>
		<path fill="#0689BD" stroke="#0689BD" stroke-miterlimit="10" d="M124.234,61.281c0,1.176,0.087,2.16,0.263,2.95
			c0.174,0.791,0.403,1.43,0.688,1.916c0.285,0.488,0.607,0.833,0.965,1.034c0.358,0.203,0.731,0.304,1.117,0.304
			c0.479,0,0.928-0.092,1.352-0.275c0.423-0.183,0.799-0.432,1.13-0.746c0.331-0.312,0.603-0.689,0.814-1.129
			c0.211-0.442,0.354-0.919,0.427-1.434h0.414c-0.073,0.588-0.234,1.135-0.482,1.64c-0.248,0.506-0.566,0.943-0.951,1.31
			c-0.387,0.368-0.832,0.658-1.338,0.869c-0.506,0.211-1.052,0.317-1.641,0.317c-0.699,0-1.361-0.151-1.985-0.455
			c-0.626-0.304-1.182-0.745-1.668-1.323c-0.489-0.579-0.874-1.287-1.159-2.125c-0.285-0.836-0.427-1.787-0.427-2.854
			c0-1.104,0.138-2.078,0.414-2.924c0.276-0.845,0.638-1.548,1.09-2.109c0.449-0.56,0.973-0.987,1.571-1.281
			c0.598-0.295,1.228-0.442,1.89-0.442c0.661,0,1.291,0.147,1.889,0.442c0.597,0.294,1.121,0.721,1.571,1.281
			c0.45,0.561,0.813,1.265,1.09,2.109c0.275,0.847,0.413,1.82,0.413,2.924H124.234z M126.717,54.937
			c-0.276,0-0.553,0.088-0.828,0.262c-0.276,0.174-0.533,0.482-0.772,0.924c-0.24,0.441-0.438,1.034-0.593,1.779
			c-0.157,0.744-0.253,1.687-0.289,2.826h4.964c-0.038-1.14-0.134-2.082-0.29-2.826c-0.156-0.745-0.354-1.338-0.592-1.779
			c-0.239-0.441-0.497-0.75-0.773-0.924C127.268,55.025,126.992,54.937,126.717,54.937z"/>
		<path fill="#0689BD" stroke="#0689BD" stroke-miterlimit="10" d="M135.784,66.934V55.626l-1.655-0.414v-0.275h3.861v1.655
			c0.184-0.368,0.432-0.707,0.745-1.021c0.258-0.257,0.588-0.497,0.992-0.717c0.404-0.221,0.883-0.331,1.435-0.331
			c0.551,0,1.061,0.102,1.531,0.304c0.468,0.202,0.876,0.483,1.228,0.842c0.348,0.358,0.619,0.79,0.813,1.295
			c0.193,0.506,0.289,1.071,0.289,1.696v8.274l1.655,0.413v0.276H141.3v-0.276l1.517-0.413V58.66c0-1.305-0.207-2.229-0.62-2.771
			c-0.415-0.542-0.897-0.813-1.448-0.813c-0.46,0-0.855,0.128-1.187,0.386c-0.331,0.257-0.616,0.543-0.855,0.855
			c-0.276,0.368-0.514,0.781-0.717,1.241v9.377l1.517,0.413v0.276h-5.378v-0.276L135.784,66.934z"/>
	</g>
	<g>
		<defs>
			<path id="SVGID_1_" d="M114.452,140.355c55.666,0,100.793-28.5,100.793-63.658c0-35.157-45.127-63.659-100.793-63.659
				c-4.471,0-8.872,0.183-13.189,0.54c-49.434,4.08-87.602,30.784-87.602,63.119C13.661,111.856,58.785,140.355,114.452,140.355z"/>
		</defs>
		<clipPath id="SVGID_2_">
			<use xlink:href="#SVGID_1_"  overflow="visible"/>
		</clipPath>
		<g clip-path="url(#SVGID_2_)">
			
				<path fill="none" stroke="#0689BD" stroke-width="2.7" stroke-linecap="round" stroke-linejoin="round" stroke-miterlimit="10" d="
				M151.097,94.264c18.721,0,18.721,9.471,37.442,9.471c18.72,0,18.72-9.471,37.442-9.471"/>
			
				<path fill="none" stroke="#0689BD" stroke-width="2.7" stroke-linecap="round" stroke-linejoin="round" stroke-miterlimit="10" d="
				M1.35,94.264c18.718,0,18.718,9.471,37.435,9.471c18.719,0,18.719-9.471,37.438-9.471"/>
		</g>
		
			<path clip-path="url(#SVGID_2_)" fill="none" stroke="#0689BD" stroke-width="2.7" stroke-linecap="round" stroke-linejoin="round" stroke-miterlimit="10" d="
			M1.35,105.91c18.718,0,18.718,9.47,37.435,9.47c18.719,0,18.719-9.47,37.438-9.47c18.718,0,18.718,9.47,37.436,9.47
			c18.72,0,18.72-9.47,37.438-9.47c18.721,0,18.721,9.47,37.442,9.47c18.72,0,18.72-9.47,37.442-9.47"/>
		
			<path clip-path="url(#SVGID_2_)" fill="none" stroke="#0689BD" stroke-width="2.7" stroke-linecap="round" stroke-linejoin="round" stroke-miterlimit="10" d="
			M1.35,117.555c18.718,0,18.718,9.47,37.435,9.47c18.719,0,18.719-9.47,37.438-9.47c18.718,0,18.718,9.47,37.436,9.47
			c18.72,0,18.72-9.47,37.438-9.47c18.721,0,18.721,9.47,37.442,9.47c18.72,0,18.72-9.47,37.442-9.47"/>
	</g>
	<g>
		<path fill="#0689BD" d="M114.452,141.419c-56.164,0-101.855-29.034-101.855-64.722c0-26.113,24.439-49.532,62.265-59.663
			c0.568-0.152,1.151,0.186,1.303,0.753c0.151,0.567-0.185,1.151-0.752,1.301c-36.868,9.875-60.689,32.486-60.689,57.608
			c0,34.515,44.738,62.595,99.728,62.595c54.991,0,99.729-28.08,99.729-62.595c0-25.038-23.715-47.623-60.414-57.534
			c-0.568-0.153-0.904-0.737-0.751-1.304c0.154-0.567,0.738-0.903,1.303-0.749c37.657,10.168,61.989,33.558,61.989,59.586
			C216.309,112.386,170.616,141.419,114.452,141.419z"/>
	</g>
	<g>
		<path fill="none" d="M114.452,140.355c55.666,0,100.793-28.5,100.793-63.658c0-35.157-45.127-63.659-100.793-63.659
			c-4.471,0-8.872,0.183-13.189,0.54c-49.434,4.08-87.602,30.784-87.602,63.119C13.661,111.856,58.785,140.355,114.452,140.355z"/>
	</g>
</g>
</svg>
