<?xml version="1.0" encoding="utf-8"?>
<!-- Generator: Adobe Illustrator 17.0.1, SVG Export Plug-In . SVG Version: 6.00 Build 0)  -->
<!DOCTYPE svg PUBLIC "-//W3C//DTD SVG 1.0//EN" "http://www.w3.org/TR/2001/REC-SVG-20010904/DTD/svg10.dtd">
<svg version="1.0" id="Layer_1" xmlns="http://www.w3.org/2000/svg" xmlns:xlink="http://www.w3.org/1999/xlink" x="0px" y="0px"
	 width="24.32px" height="24.32px" viewBox="0 0 24.32 24.32" enable-background="new 0 0 24.32 24.32" xml:space="preserve">
<g>
	<g>
		<g>
			<path fill="#0689BD" d="M23.12,24.32c-0.307,0-0.614-0.117-0.849-0.352L0.352,2.049c-0.469-0.469-0.469-1.229,0-1.697
				c0.469-0.469,1.228-0.469,1.697,0l21.92,21.92c0.469,0.469,0.469,1.229,0,1.697C23.734,24.203,23.427,24.32,23.12,24.32z"/>
		</g>
		<g>
			<path fill="#0689BD" d="M1.2,24.32c-0.307,0-0.614-0.117-0.849-0.352c-0.469-0.469-0.469-1.228,0-1.697l21.92-21.92
				c0.469-0.469,1.229-0.469,1.697,0c0.469,0.469,0.469,1.229,0,1.697l-21.92,21.92C1.814,24.203,1.507,24.32,1.2,24.32z"/>
		</g>
	</g>
</g>
</svg>
