<?xml version="1.0" encoding="utf-8"?>
<!-- Generator: Adobe Illustrator 17.0.1, SVG Export Plug-In . SVG Version: 6.00 Build 0)  -->
<!DOCTYPE svg PUBLIC "-//W3C//DTD SVG 1.0//EN" "http://www.w3.org/TR/2001/REC-SVG-20010904/DTD/svg10.dtd">
<svg version="1.0" id="Layer_1" xmlns="http://www.w3.org/2000/svg" xmlns:xlink="http://www.w3.org/1999/xlink" x="0px" y="0px"
	 width="24.341px" height="24.34px" viewBox="0 0 24.341 24.34" enable-background="new 0 0 24.341 24.34" xml:space="preserve">
<g>
	<g>
		<path fill="#B4D8E5" d="M22.92,24.049c-0.389,0.389-1.025,0.389-1.414,0L0.291,2.835c-0.389-0.389-0.389-1.025,0-1.414l1.13-1.129
			c0.39-0.389,1.026-0.389,1.415,0l21.213,21.213c0.389,0.389,0.389,1.025,0,1.414L22.92,24.049z"/>
	</g>
	<g>
		<path fill="#B4D8E5" d="M24.048,1.421c0.39,0.389,0.39,1.025,0.001,1.414L2.834,24.049c-0.389,0.389-1.025,0.389-1.414,0
			l-1.129-1.13c-0.389-0.389-0.389-1.025,0-1.414L21.504,0.292c0.389-0.389,1.025-0.389,1.414,0L24.048,1.421z"/>
	</g>
</g>
</svg>
