<?xml version="1.0" encoding="utf-8"?>
<!-- Generator: Adobe Illustrator 23.0.5, SVG Export Plug-In . SVG Version: 6.00 Build 0)  -->
<svg version="1.0" id="Layer_1" xmlns="http://www.w3.org/2000/svg" xmlns:xlink="http://www.w3.org/1999/xlink" x="0px" y="0px"
	 width="19.16px" height="19.16px" viewBox="0 0 19.16 19.16" style="enable-background:new 0 0 19.16 19.16;" xml:space="preserve"
	>
<style type="text/css">
	.st0{fill:#0689BD;}
</style>
<g>
	<g>
		<g>
			<g>
				<path class="st0" d="M8.49,6.25C8.53,6.32,8.56,6.39,8.6,6.44C8.63,6.5,8.69,6.55,8.72,6.6C8.77,6.65,8.83,6.71,8.9,6.76
					c0.05,0.04,0.12,0.09,0.21,0.1C9.18,6.9,9.25,6.92,9.33,6.93c0.09,0.02,0.16,0.02,0.23,0.02c0.07,0,0.16,0,0.23-0.02
					C9.86,6.92,9.93,6.9,9.98,6.86H10c0.07-0.03,0.14-0.07,0.21-0.12c0.05-0.04,0.11-0.09,0.16-0.14l0.02-0.02
					c0.05-0.05,0.09-0.1,0.12-0.16c0.04-0.05,0.07-0.1,0.09-0.17c0-0.02,0-0.02,0.02-0.04c0.04-0.07,0.05-0.16,0.07-0.23
					c0.02-0.07,0.02-0.16,0.02-0.23c0-0.07,0-0.16-0.02-0.23c-0.02-0.07-0.04-0.14-0.07-0.23c-0.05-0.12-0.12-0.23-0.21-0.32
					c-0.02-0.02-0.02-0.02-0.04-0.03c-0.05-0.05-0.1-0.09-0.17-0.14C10.12,4.78,10.07,4.75,10,4.71C9.93,4.68,9.86,4.66,9.79,4.64
					C9.7,4.62,9.63,4.62,9.56,4.62c-0.07,0-0.16,0-0.23,0.02C9.26,4.66,9.19,4.68,9.12,4.71H9.11C9.04,4.75,8.97,4.78,8.91,4.82
					C8.84,4.87,8.79,4.9,8.74,4.96C8.69,5.01,8.63,5.06,8.6,5.11C8.56,5.17,8.53,5.24,8.49,5.31C8.46,5.38,8.44,5.45,8.42,5.52
					C8.41,5.6,8.41,5.67,8.41,5.74c0,0.07,0,0.16,0.02,0.23C8.44,6.11,8.47,6.18,8.49,6.25z"/>
				<path class="st0" d="M10.93,12.66h-0.4V8.37c0-0.25-0.19-0.46-0.46-0.46H8.23c-0.25,0-0.46,0.19-0.46,0.46v0.95
					c0,0.24,0.19,0.46,0.46,0.46H8.6v2.91H8.23c-0.25,0-0.46,0.19-0.46,0.45v0.95c0,0.25,0.19,0.46,0.46,0.46h2.7
					c0.25,0,0.45-0.19,0.45-0.46v-0.95C11.38,12.87,11.17,12.66,10.93,12.66z"/>
				<path class="st0" d="M9.58,0C4.29,0,0,4.29,0,9.58c0,5.29,4.29,9.58,9.58,9.58c5.29,0,9.58-4.29,9.58-9.58
					C19.16,4.29,14.87,0,9.58,0z M9.58,17.9c-4.59,0-8.32-3.73-8.32-8.32c0-4.59,3.73-8.32,8.32-8.32c4.59,0,8.32,3.73,8.32,8.32
					C17.9,14.17,14.17,17.9,9.58,17.9z"/>
			</g>
		</g>
	</g>
</g>
</svg>
