<?xml version="1.0" encoding="utf-8"?>
<!-- Generator: Adobe Illustrator 17.0.1, SVG Export Plug-In . SVG Version: 6.00 Build 0)  -->
<!DOCTYPE svg PUBLIC "-//W3C//DTD SVG 1.0//EN" "http://www.w3.org/TR/2001/REC-SVG-20010904/DTD/svg10.dtd">
<svg version="1.0" id="Layer_1" xmlns="http://www.w3.org/2000/svg" xmlns:xlink="http://www.w3.org/1999/xlink" x="0px" y="0px"
	 width="21.922px" height="21.923px" viewBox="0 0 21.922 21.923" enable-background="new 0 0 21.922 21.923" xml:space="preserve">
<g id="XMLID_5_">
	<path id="XMLID_8_" fill="#0689BD" d="M15.394,0H6.534C2.93,0,0,2.929,0,6.531v8.861c0,3.601,2.93,6.53,6.534,6.53h8.859
		c3.602,0,6.529-2.93,6.529-6.53V6.531C21.922,2.929,18.996,0,15.394,0z M19.72,15.393c0,2.388-1.938,4.326-4.326,4.326H6.534
		c-2.391,0-4.326-1.939-4.326-4.326V6.531c0-2.388,1.935-4.326,4.326-4.326h8.859c2.388,0,4.326,1.938,4.326,4.326V15.393
		L19.72,15.393z"/>
	<path id="XMLID_7_" fill="#0689BD" d="M10.964,5.291c-3.126,0-5.672,2.543-5.672,5.67c0,3.126,2.546,5.674,5.672,5.674
		c3.121,0,5.668-2.548,5.668-5.674C16.632,7.834,14.085,5.291,10.964,5.291z M10.964,14.426c-1.917,0-3.463-1.549-3.463-3.465
		c0-1.911,1.545-3.463,3.463-3.463c1.913,0,3.461,1.552,3.461,3.463C14.425,12.877,12.877,14.426,10.964,14.426z"/>
	<path id="XMLID_6_" fill="#0689BD" d="M16.641,3.977c0.756,0,1.363,0.608,1.363,1.359c0,0.749-0.607,1.358-1.363,1.358
		c-0.751,0-1.358-0.609-1.358-1.358C15.282,4.585,15.89,3.977,16.641,3.977z"/>
</g>
</svg>
