<?xml version="1.0" encoding="utf-8"?>
<!-- Generator: Adobe Illustrator 17.0.1, SVG Export Plug-In . SVG Version: 6.00 Build 0)  -->
<!DOCTYPE svg PUBLIC "-//W3C//DTD SVG 1.0//EN" "http://www.w3.org/TR/2001/REC-SVG-20010904/DTD/svg10.dtd">
<svg version="1.0" id="Layer_1" xmlns="http://www.w3.org/2000/svg" xmlns:xlink="http://www.w3.org/1999/xlink" x="0px" y="0px"
	 width="136.864px" height="93.111px" viewBox="0 0 136.864 93.111" enable-background="new 0 0 136.864 93.111"
	 xml:space="preserve">
<g>
	<path fill="#231F20" d="M68.433,0C30.639,0,0,20.846,0,46.557C0,72.27,30.639,93.111,68.433,93.111
		c37.793,0,68.432-20.841,68.432-46.555C136.864,20.846,106.226,0,68.433,0z M68.433,90.494c-34.338,0-62.176-19.674-62.176-43.938
		c0-24.268,27.838-43.938,62.176-43.938c34.338,0,62.174,19.67,62.174,43.938C130.607,70.82,102.771,90.494,68.433,90.494z"/>
	<g>
		<g>
			<rect x="14.56" y="68.84" fill="#231F20" width="49.286" height="0.504"/>
		</g>
		<g>
			<rect x="73.018" y="68.84" fill="#231F20" width="49.288" height="0.504"/>
		</g>
		<g>
			<path fill="#231F20" d="M68.468,71.057c-1.085,0-1.965-0.881-1.965-1.963c0-1.084,0.881-1.968,1.965-1.968
				c1.082,0,1.964,0.884,1.964,1.968C70.433,70.176,69.551,71.057,68.468,71.057z M68.468,68.143c-0.525,0-0.951,0.424-0.951,0.951
				c0,0.523,0.426,0.951,0.951,0.951c0.524,0,0.951-0.428,0.951-0.951C69.419,68.566,68.993,68.143,68.468,68.143z"/>
		</g>
	</g>
	<g>
		<path fill="#231F20" d="M29.682,62.219h9.637v-0.814l-1.364-0.34V45.646h-3.838v0.812l1.364,0.341v14.266l-0.865,0.215
			l-0.935-0.231l-4.761-15.644l-0.029-0.1h-0.832l-4.456,15.541l-1.535,0.589v0.784h4.066v-0.784l-1.406-0.538l0.982-3.341h4.173
			l1.078,3.532l-1.278,0.316V62.219z M29.545,56.468H26.01l1.715-6.03L29.545,56.468z"/>
		<path fill="#231F20" d="M48.332,52.353c-0.401-0.512-0.865-0.909-1.379-1.179c-0.959-0.502-2.133-0.536-2.936-0.098
			c-0.358,0.195-0.659,0.412-0.894,0.646c-0.019,0.02-0.038,0.038-0.055,0.055v-0.674h-3.838v0.811l1.364,0.34v14.266l-1.364,0.344
			v0.811h5.203v-0.811l-1.365-0.344v-4.611c0.006,0.006,0.011,0.008,0.017,0.014c0.221,0.172,0.496,0.32,0.821,0.441
			c0.33,0.129,0.742,0.194,1.221,0.194c0.593,0,1.171-0.138,1.716-0.41c0.539-0.269,1.025-0.663,1.447-1.175
			c0.417-0.508,0.754-1.129,1.001-1.853c0.245-0.719,0.369-1.55,0.369-2.46c0-0.912-0.124-1.74-0.369-2.459
			C49.046,53.478,48.724,52.861,48.332,52.353z M46.96,56.66c0,0.945-0.07,1.739-0.208,2.361c-0.136,0.613-0.314,1.114-0.531,1.487
			c-0.204,0.349-0.431,0.595-0.674,0.731c-0.464,0.264-1.089,0.27-1.51,0.035c-0.228-0.129-0.418-0.266-0.564-0.412
			c-0.155-0.157-0.29-0.335-0.403-0.535V53.66c0.15-0.33,0.327-0.631,0.523-0.892c0.178-0.233,0.396-0.45,0.646-0.648
			c0.216-0.168,0.471-0.248,0.777-0.248c0.191,0,0.396,0.067,0.604,0.205c0.219,0.146,0.428,0.395,0.622,0.74
			c0.203,0.364,0.375,0.862,0.512,1.48C46.891,54.924,46.96,55.716,46.96,56.66z"/>
		<path fill="#231F20" d="M95.247,54.5c0-1.116-0.351-2.027-1.041-2.713c-0.69-0.678-1.637-1.027-2.812-1.027
			c-0.581,0-1.103,0.08-1.551,0.234c-0.45,0.157-0.841,0.365-1.167,0.621c-0.331,0.268-0.587,0.569-0.758,0.906
			c-0.173,0.34-0.262,0.699-0.262,1.069c0,0.165,0.005,0.29,0.012,0.391c0.009,0.106,0.021,0.203,0.039,0.284
			c0.023,0.122,0.062,0.219,0.117,0.307l0.128,0.191l2.409-0.604l-0.142-0.35c-0.022-0.055-0.039-0.111-0.051-0.168
			c-0.013-0.063-0.021-0.138-0.028-0.219c-0.007-0.082-0.01-0.176-0.01-0.289c0-0.43,0.118-0.759,0.361-1.008
			c0.24-0.25,0.535-0.366,0.901-0.366c0.349,0,0.652,0.178,0.932,0.548c0.296,0.395,0.446,1.133,0.446,2.191v1.039
			c-0.921,0.019-1.734,0.129-2.42,0.317c-0.776,0.214-1.425,0.501-1.931,0.853c-0.516,0.36-0.91,0.781-1.167,1.248
			c-0.261,0.473-0.394,0.953-0.394,1.432c0,0.955,0.314,1.733,0.935,2.311c0.613,0.57,1.519,0.858,2.691,0.858
			c0.506,0,0.952-0.101,1.324-0.3c0.354-0.188,0.651-0.402,0.885-0.637c0.025-0.027,0.052-0.053,0.077-0.079v0.677h3.839v-0.814
			l-1.364-0.34V54.5z M92.772,56.653v3.007c-0.149,0.344-0.326,0.642-0.525,0.893c-0.177,0.232-0.396,0.451-0.653,0.643
			c-0.224,0.17-0.475,0.254-0.769,0.254c-0.298,0-0.575-0.15-0.846-0.459c-0.277-0.316-0.417-0.775-0.417-1.373
			c0-0.933,0.282-1.666,0.838-2.182C90.913,56.959,91.711,56.697,92.772,56.653z"/>
		<path fill="#231F20" d="M104.442,51.002c-0.103-0.031-0.218-0.067-0.374-0.117c-0.129-0.033-0.275-0.061-0.44-0.084
			c-0.166-0.027-0.344-0.041-0.525-0.041c-0.567,0-1.061,0.191-1.471,0.566c-0.37,0.339-0.689,0.721-0.945,1.143
			c-0.033,0.053-0.065,0.107-0.097,0.162v-1.527h-3.838v0.811l1.364,0.34v8.811l-1.364,0.34v0.814h5.203v-0.814l-1.365-0.34v-6.272
			c0.135-0.323,0.312-0.62,0.523-0.891c0.174-0.226,0.403-0.439,0.677-0.632c0.249-0.174,0.531-0.26,0.859-0.26
			c0.105,0,0.206,0.016,0.305,0.041c0.111,0.033,0.203,0.07,0.26,0.098c0.112,0.063,0.218,0.121,0.314,0.168l0.317,0.155
			l0.949-2.372L104.442,51.002z"/>
		<polygon fill="#231F20" points="113.318,61.036 109.928,55.379 111.954,52.496 113.548,51.883 113.548,51.103 109.482,51.103 
			109.482,51.883 110.778,52.384 107.863,56.533 107.863,45.646 104.025,45.646 104.025,46.458 105.39,46.799 105.39,61.064 
			104.025,61.404 104.025,62.219 109.115,62.219 109.115,61.412 107.863,61.07 107.863,58.288 108.4,57.529 110.557,61.12 
			109.482,61.412 109.482,62.219 114.799,62.219 114.799,61.404 		"/>
		<path fill="#231F20" d="M85.068,47.187c-0.529-0.482-1.19-0.863-1.966-1.136c-0.768-0.269-1.649-0.405-2.62-0.405h-4.42v0.812
			l1.363,0.341v14.266l-1.363,0.34v0.814h5.316v-0.814l-1.365-0.34v-4.531h0.469c0.972,0,1.855-0.137,2.62-0.406
			c0.774-0.271,1.436-0.65,1.965-1.133c0.533-0.486,0.947-1.066,1.229-1.728c0.281-0.659,0.423-1.392,0.423-2.175
			c0-0.785-0.142-1.518-0.423-2.177C86.013,48.252,85.601,47.671,85.068,47.187z M83.905,51.092c0,1.558-0.301,2.686-0.894,3.348
			c-0.584,0.652-1.435,0.984-2.528,0.984h-0.469v-8.666h0.469c1.094,0,1.944,0.329,2.528,0.981
			C83.604,48.403,83.905,49.53,83.905,51.092z"/>
		<path fill="#231F20" d="M69.442,54.5c0-0.553-0.087-1.061-0.26-1.515c-0.174-0.456-0.424-0.853-0.742-1.181
			c-0.317-0.324-0.693-0.584-1.118-0.768c-0.418-0.178-0.893-0.273-1.375-0.273c-0.513,0-0.981,0.107-1.355,0.313
			c-0.36,0.195-0.663,0.412-0.895,0.646c-0.018,0.02-0.035,0.033-0.053,0.055v-0.674h-3.838v0.811l1.364,0.34v8.811l-1.364,0.34
			v0.814h5.088v-0.807l-1.25-0.342v-7.41c0.149-0.33,0.326-0.631,0.524-0.894c0.176-0.231,0.394-0.448,0.645-0.646
			c0.214-0.168,0.469-0.248,0.776-0.248c0.35,0,0.655,0.176,0.934,0.541c0.295,0.385,0.444,1.088,0.444,2.086v6.57l-1.249,0.342
			v0.807h5.088v-0.814l-1.364-0.34V54.5z"/>
		<path fill="#231F20" d="M58.014,52.307c-0.401-0.498-0.874-0.885-1.406-1.146c-1.054-0.519-2.352-0.519-3.404,0
			c-0.535,0.261-1.008,0.65-1.406,1.146c-0.396,0.491-0.716,1.109-0.954,1.842c-0.238,0.725-0.359,1.568-0.359,2.512
			c0,0.91,0.125,1.739,0.37,2.46c0.246,0.724,0.588,1.349,1.014,1.853c0.429,0.514,0.928,0.908,1.483,1.177
			c0.558,0.272,1.157,0.408,1.78,0.408c0.527,0,1.023-0.096,1.48-0.286c0.454-0.189,0.858-0.453,1.202-0.781
			c0.345-0.33,0.632-0.723,0.853-1.174c0.221-0.449,0.364-0.94,0.429-1.455l0.046-0.367h-0.996l-0.04,0.281
			c-0.055,0.387-0.164,0.753-0.323,1.086c-0.159,0.324-0.36,0.608-0.601,0.836c-0.245,0.23-0.526,0.415-0.838,0.55
			c-0.626,0.272-1.246,0.274-1.743-0.007c-0.242-0.137-0.471-0.383-0.674-0.731c-0.217-0.37-0.395-0.87-0.531-1.487
			c-0.122-0.547-0.191-1.234-0.206-2.035h6.137V56.66c0-0.938-0.121-1.783-0.357-2.512C58.729,53.416,58.408,52.798,58.014,52.307z
			 M55.935,52.564c0.179,0.332,0.333,0.796,0.457,1.379c0.108,0.518,0.182,1.166,0.219,1.936h-3.411
			c0.036-0.762,0.109-1.414,0.219-1.936c0.124-0.583,0.276-1.047,0.456-1.379c0.17-0.313,0.347-0.528,0.525-0.641
			c0.351-0.223,0.661-0.223,1.012,0C55.589,52.036,55.766,52.252,55.935,52.564z"/>
	</g>
	<path fill="#231F20" d="M120.369,46.014l-13.063-14.695l-4.803-2.633l-2.603,1.789l-7.581-8.31l-4.304-3.128l-5.455,3.199
		l-8.853-9.237l-4.892-4.128c-2.029,1.941-11.921,12.067-11.921,12.067l-7.131-2.482l-15.67,15.542L26.287,35.5l-9.793,10.514
		l11.311-2.99l10.373-8.945l7.045,4.296l9.746-12.954l10.998,4.193l6.987-14.376l10.688,11.949l7.809-2.612l9.741,12.688
		l4.509-3.861l11.247,11.067L120.369,46.014z"/>
	<g>
		<path fill="#231F20" d="M34.26,74.512c-0.004,0.051-0.007,0.111-0.009,0.182c-0.005,0.068-0.005,0.145-0.005,0.234
			c0,0.054,0,0.117,0.005,0.186c0.002,0.069,0.005,0.133,0.009,0.188c0.005,0.065,0.013,0.133,0.023,0.198h-0.077
			c-0.132-0.119-0.242-0.26-0.329-0.426c-0.087-0.166-0.13-0.355-0.13-0.569h-0.613v3.177l0.46,0.113v0.08h-1.53v-0.08l0.458-0.113
			v-3.177h-0.611c0,0.214-0.045,0.403-0.131,0.569c-0.086,0.166-0.197,0.307-0.329,0.426h-0.077
			c0.005-0.065,0.009-0.133,0.015-0.198c0.005-0.056,0.011-0.119,0.015-0.188c0.005-0.068,0.008-0.132,0.008-0.186
			c0-0.09-0.003-0.166-0.008-0.234c-0.004-0.07-0.01-0.131-0.015-0.182c-0.006-0.057-0.01-0.11-0.015-0.16h2.909
			C34.273,74.401,34.266,74.455,34.26,74.512z"/>
		<path fill="#231F20" d="M35.967,78.523c-0.081,0.24-0.159,0.439-0.235,0.604c-0.078,0.158-0.158,0.291-0.241,0.389
			c-0.084,0.102-0.171,0.169-0.26,0.211c-0.089,0.041-0.188,0.061-0.296,0.061c-0.029,0-0.057,0-0.084-0.005
			c-0.024-0.002-0.051-0.005-0.076-0.011c-0.025-0.004-0.048-0.012-0.068-0.021l-0.115-0.576c0.021,0.01,0.044,0.021,0.069,0.023
			c0.025,0.008,0.05,0.01,0.077,0.012c0.025,0.004,0.054,0.004,0.084,0.004c0.306,0,0.529-0.057,0.67-0.17
			c0.141-0.115,0.249-0.289,0.324-0.52l0.215-0.648l-1.324-3.332l-0.459-0.115v-0.076h1.531v0.076l-0.422,0.115l0.972,2.441
			l0.789-2.365l-0.497-0.192v-0.076h1.148v0.076l-0.498,0.192L35.967,78.523z"/>
		<path fill="#231F20" d="M38.111,74.543l-0.459-0.115v-0.076h1.072v0.459c0.051-0.1,0.12-0.195,0.206-0.283
			c0.072-0.072,0.164-0.14,0.276-0.199c0.113-0.061,0.246-0.094,0.398-0.094c0.164,0,0.327,0.043,0.487,0.129
			c0.159,0.082,0.304,0.207,0.429,0.367c0.124,0.162,0.227,0.357,0.306,0.59c0.079,0.232,0.119,0.497,0.119,0.791
			c0,0.299-0.04,0.561-0.119,0.795c-0.079,0.232-0.185,0.428-0.317,0.588c-0.133,0.161-0.283,0.285-0.452,0.366
			c-0.169,0.087-0.345,0.13-0.528,0.13c-0.148,0-0.271-0.02-0.371-0.058c-0.099-0.041-0.183-0.083-0.249-0.137
			c-0.077-0.055-0.138-0.116-0.184-0.189v1.912l0.459,0.117v0.077h-1.531v-0.077l0.459-0.117V74.543z M39.414,77.837
			c0.107,0,0.211-0.028,0.31-0.087c0.099-0.057,0.189-0.15,0.268-0.287c0.078-0.135,0.143-0.311,0.19-0.533
			c0.048-0.219,0.074-0.491,0.074-0.818c0-0.324-0.026-0.599-0.074-0.817c-0.048-0.22-0.109-0.395-0.183-0.528
			c-0.075-0.135-0.157-0.229-0.246-0.289c-0.09-0.059-0.177-0.089-0.264-0.089c-0.128,0-0.236,0.038-0.329,0.108
			c-0.092,0.074-0.171,0.152-0.238,0.238c-0.076,0.102-0.142,0.215-0.199,0.344v2.299c0.046,0.086,0.102,0.162,0.168,0.229
			c0.056,0.058,0.127,0.107,0.215,0.159C39.194,77.811,39.296,77.837,39.414,77.837z"/>
		<path fill="#231F20" d="M43.357,74.428v-0.076h1.492v0.076l-0.458,0.115v3.139l0.458,0.113v0.08h-1.492v-0.08l0.421-0.113v-2.525
			l-1.341,2.067v0.458l0.423,0.113v0.08h-1.494v-0.08l0.459-0.113v-3.139l-0.459-0.115v-0.076h1.494v0.076l-0.423,0.115v2.41
			l1.341-2.067v-0.343L43.357,74.428z"/>
		<path fill="#231F20" d="M46.764,74.388c-0.097,0-0.193,0.03-0.287,0.089c-0.095,0.061-0.181,0.154-0.257,0.289
			c-0.076,0.134-0.14,0.309-0.188,0.528c-0.049,0.219-0.073,0.493-0.073,0.817c0,0.327,0.024,0.6,0.073,0.818
			c0.048,0.223,0.114,0.398,0.195,0.533c0.082,0.137,0.174,0.23,0.279,0.287c0.104,0.059,0.215,0.087,0.333,0.087
			c0.133,0,0.258-0.028,0.376-0.079c0.117-0.051,0.221-0.118,0.313-0.205c0.092-0.09,0.167-0.191,0.226-0.315
			c0.059-0.12,0.099-0.253,0.119-0.396h0.114c-0.02,0.165-0.064,0.313-0.133,0.454c-0.069,0.143-0.157,0.263-0.265,0.366
			c-0.107,0.099-0.23,0.18-0.371,0.241c-0.14,0.057-0.292,0.088-0.456,0.088c-0.199,0-0.389-0.043-0.572-0.13
			c-0.18-0.081-0.339-0.205-0.477-0.366c-0.139-0.16-0.247-0.355-0.326-0.588c-0.079-0.234-0.119-0.496-0.119-0.795
			c0-0.294,0.041-0.559,0.119-0.791c0.079-0.232,0.185-0.428,0.317-0.59c0.133-0.16,0.284-0.285,0.453-0.367
			c0.168-0.086,0.344-0.129,0.529-0.129c0.121,0,0.23,0.023,0.324,0.063c0.095,0.044,0.175,0.086,0.241,0.13
			c0.077,0.057,0.143,0.119,0.199,0.192c0.02-0.076,0.063-0.147,0.126-0.211c0.064-0.066,0.124-0.112,0.18-0.133h0.115
			c-0.01,0.066-0.018,0.136-0.023,0.207c-0.005,0.061-0.01,0.126-0.012,0.198c-0.003,0.073-0.003,0.141-0.003,0.205
			c0,0.077,0.001,0.157,0.003,0.234c0.002,0.081,0.007,0.151,0.012,0.212c0.005,0.07,0.013,0.141,0.023,0.207H47.76
			c-0.097-0.367-0.239-0.653-0.424-0.852C47.148,74.49,46.958,74.388,46.764,74.388z"/>
		<path fill="#231F20" d="M51.143,74.512c-0.005,0.051-0.008,0.111-0.011,0.182c-0.002,0.068-0.004,0.145-0.004,0.234
			c0,0.054,0.002,0.117,0.004,0.186c0.003,0.069,0.006,0.133,0.011,0.188c0.005,0.065,0.013,0.133,0.023,0.198h-0.075
			c-0.133-0.119-0.244-0.26-0.33-0.426c-0.087-0.166-0.131-0.355-0.131-0.569h-0.612v3.177l0.459,0.113v0.08h-1.532v-0.08
			l0.46-0.113v-3.177h-0.613c0,0.214-0.042,0.403-0.129,0.569c-0.087,0.166-0.196,0.307-0.33,0.426h-0.076
			c0.005-0.065,0.011-0.133,0.016-0.198c0.006-0.056,0.01-0.119,0.016-0.188c0.003-0.068,0.007-0.132,0.007-0.186
			c0-0.09-0.004-0.166-0.007-0.234c-0.006-0.07-0.01-0.131-0.016-0.182c-0.005-0.057-0.011-0.11-0.016-0.16h2.909
			C51.156,74.401,51.148,74.455,51.143,74.512z"/>
		<path fill="#231F20" d="M53.463,74.428v-0.076h1.493v0.076l-0.458,0.115v3.139l0.458,0.113v0.08h-1.493v-0.08l0.422-0.113v-2.525
			l-1.341,2.067v0.458l0.423,0.113v0.08h-1.494v-0.08l0.46-0.113v-3.139l-0.46-0.115v-0.076h1.494v0.076l-0.423,0.115v2.41
			l1.341-2.067v-0.343L53.463,74.428z"/>
		<path fill="#231F20" d="M57.482,76.381c-0.071,0.04-0.145,0.074-0.222,0.1c-0.071,0.025-0.148,0.045-0.233,0.064
			c-0.084,0.018-0.174,0.027-0.271,0.027c-0.185,0-0.346-0.023-0.486-0.074c-0.142-0.047-0.262-0.113-0.36-0.197
			c-0.1-0.083-0.175-0.184-0.226-0.296c-0.052-0.11-0.078-0.228-0.078-0.351v-1.111l-0.459-0.115v-0.076h1.492v0.076l-0.419,0.115
			v1.111c0,0.268,0.053,0.465,0.16,0.585c0.107,0.12,0.258,0.18,0.452,0.18c0.076,0,0.153-0.009,0.23-0.024
			c0.075-0.021,0.144-0.041,0.206-0.066c0.072-0.026,0.142-0.063,0.213-0.101v-1.685l-0.419-0.115v-0.076h1.492v0.076l-0.458,0.115
			v3.139l0.458,0.113v0.08h-1.531v-0.08l0.459-0.113V76.381z"/>
		<path fill="#231F20" d="M59.665,76.111c0,0.327,0.024,0.6,0.073,0.818c0.049,0.223,0.112,0.398,0.191,0.533
			c0.079,0.137,0.168,0.23,0.268,0.287c0.099,0.059,0.203,0.087,0.311,0.087c0.132,0,0.257-0.028,0.374-0.079
			c0.119-0.051,0.223-0.118,0.315-0.205c0.092-0.09,0.166-0.191,0.226-0.315c0.059-0.12,0.099-0.253,0.119-0.396h0.115
			c-0.021,0.165-0.065,0.313-0.134,0.454c-0.069,0.143-0.157,0.263-0.264,0.366c-0.107,0.099-0.232,0.18-0.372,0.241
			c-0.14,0.057-0.292,0.088-0.456,0.088c-0.195,0-0.378-0.043-0.552-0.13c-0.171-0.081-0.328-0.205-0.462-0.366
			c-0.135-0.16-0.243-0.355-0.321-0.588c-0.079-0.234-0.119-0.496-0.119-0.795c0-0.305,0.038-0.575,0.115-0.81
			c0.075-0.233,0.178-0.431,0.302-0.585c0.125-0.156,0.271-0.275,0.437-0.357s0.34-0.125,0.524-0.125
			c0.184,0,0.358,0.043,0.524,0.125c0.166,0.082,0.312,0.201,0.437,0.357c0.125,0.154,0.226,0.352,0.303,0.585
			c0.076,0.234,0.115,0.505,0.115,0.81H59.665z M60.354,74.352c-0.076,0-0.153,0.023-0.229,0.072
			c-0.079,0.048-0.149,0.137-0.215,0.257c-0.067,0.123-0.122,0.29-0.165,0.493c-0.044,0.207-0.07,0.471-0.081,0.787h1.378
			c-0.01-0.316-0.037-0.58-0.081-0.787c-0.043-0.203-0.098-0.37-0.164-0.493c-0.067-0.12-0.138-0.209-0.214-0.257
			C60.508,74.375,60.431,74.352,60.354,74.352z"/>
		<path fill="#231F20" d="M63.685,74.388c-0.097,0-0.193,0.03-0.288,0.089c-0.095,0.061-0.181,0.154-0.256,0.289
			c-0.076,0.134-0.14,0.309-0.188,0.528c-0.049,0.219-0.072,0.493-0.072,0.817c0,0.327,0.023,0.6,0.072,0.818
			c0.048,0.223,0.114,0.398,0.194,0.533c0.083,0.137,0.176,0.23,0.28,0.287c0.104,0.059,0.215,0.087,0.333,0.087
			c0.132,0,0.258-0.028,0.376-0.079c0.117-0.051,0.221-0.118,0.313-0.205c0.091-0.09,0.168-0.191,0.227-0.315
			c0.058-0.12,0.097-0.253,0.118-0.396h0.114c-0.02,0.165-0.064,0.313-0.133,0.454c-0.069,0.143-0.157,0.263-0.264,0.366
			c-0.107,0.099-0.231,0.18-0.371,0.241c-0.14,0.057-0.292,0.088-0.456,0.088c-0.199,0-0.388-0.043-0.571-0.13
			c-0.181-0.081-0.34-0.205-0.478-0.366c-0.139-0.16-0.247-0.355-0.326-0.588c-0.08-0.234-0.119-0.496-0.119-0.795
			c0-0.294,0.039-0.559,0.119-0.791c0.079-0.232,0.185-0.428,0.318-0.59c0.132-0.16,0.283-0.285,0.452-0.367
			c0.168-0.086,0.344-0.129,0.528-0.129c0.122,0,0.231,0.023,0.325,0.063c0.094,0.044,0.175,0.086,0.242,0.13
			c0.075,0.057,0.141,0.119,0.198,0.192c0.02-0.076,0.063-0.147,0.127-0.211c0.063-0.066,0.123-0.112,0.18-0.133h0.115
			c-0.011,0.066-0.019,0.136-0.023,0.207c-0.006,0.061-0.009,0.126-0.012,0.198c-0.002,0.073-0.004,0.141-0.004,0.205
			c0,0.077,0.002,0.157,0.004,0.234c0.003,0.081,0.006,0.151,0.012,0.212c0.005,0.07,0.013,0.141,0.023,0.207h-0.115
			c-0.097-0.367-0.239-0.653-0.425-0.852C64.068,74.49,63.879,74.388,63.685,74.388z"/>
		<path fill="#231F20" d="M66.624,76.182l-0.336,0.582v0.918l0.422,0.113v0.08h-1.494v-0.08l0.459-0.113v-3.139l-0.459-0.115v-0.076
			h1.569v0.076l-0.497,0.115v1.953l0.689-1.225c0.117-0.211,0.216-0.379,0.298-0.51c0.082-0.133,0.155-0.232,0.22-0.301
			c0.063-0.075,0.122-0.119,0.179-0.146c0.056-0.025,0.117-0.039,0.184-0.039c0.025,0,0.052,0.002,0.077,0.01
			c0.025,0.004,0.045,0.008,0.062,0.013c0.021,0.005,0.038,0.01,0.054,0.017l0.115,0.533c-0.032-0.004-0.061-0.01-0.092-0.014
			c-0.026-0.006-0.055-0.011-0.089-0.015c-0.033-0.004-0.062-0.009-0.088-0.009c-0.208,0-0.367,0.037-0.474,0.117
			c-0.108,0.075-0.203,0.192-0.291,0.344l-0.192,0.337l1.265,2.073l0.458,0.113v0.08h-1.546v-0.08l0.421-0.113L66.624,76.182z"/>
		<path fill="#231F20" d="M70.614,74.428v-0.076h1.493v0.076l-0.458,0.115v3.139l0.458,0.113v0.08h-1.493v-0.08l0.421-0.113v-2.525
			l-1.34,2.067v0.458l0.421,0.113v0.08h-1.493v-0.08l0.459-0.113v-3.139l-0.459-0.115v-0.076h1.493v0.076l-0.421,0.115v2.41
			l1.34-2.067v-0.343L70.614,74.428z"/>
		<path fill="#231F20" d="M74.442,74.428v-0.076h1.494v0.076l-0.46,0.115v3.139l0.46,0.113v0.08h-1.494v-0.08l0.421-0.113v-2.525
			l-1.34,2.067v0.458l0.421,0.113v0.08h-1.493v-0.08l0.46-0.113v-3.139l-0.46-0.115v-0.076h1.493v0.076l-0.421,0.115v2.41
			l1.34-2.067v-0.343L74.442,74.428z M74.213,73.776c0.098,0,0.178-0.036,0.245-0.11c0.066-0.075,0.1-0.178,0.1-0.311
			c0-0.041-0.004-0.075-0.009-0.107c-0.004-0.029-0.01-0.057-0.015-0.085c-0.005-0.024-0.01-0.05-0.015-0.073h0.497
			c0.006,0.014,0.011,0.031,0.016,0.052c0.005,0.017,0.011,0.037,0.015,0.062c0.005,0.025,0.008,0.052,0.008,0.077
			c0,0.174-0.068,0.318-0.203,0.437c-0.135,0.115-0.349,0.174-0.639,0.174c-0.291,0-0.505-0.059-0.639-0.174
			c-0.135-0.118-0.203-0.263-0.203-0.437c0-0.052,0.004-0.1,0.016-0.139c0.004-0.021,0.012-0.038,0.022-0.052h0.498
			c-0.01,0.023-0.018,0.049-0.023,0.073c-0.006,0.028-0.01,0.056-0.012,0.085c-0.003,0.032-0.003,0.066-0.003,0.107
			c0,0.133,0.032,0.235,0.098,0.311C74.033,73.74,74.115,73.776,74.213,73.776z"/>
		<path fill="#231F20" d="M79.335,76.182l-0.337,0.582v0.918l0.421,0.113v0.08h-1.492v-0.08l0.458-0.113v-3.139l-0.458-0.115v-0.076
			h1.57v0.076l-0.498,0.115v1.953l0.689-1.225c0.118-0.211,0.217-0.379,0.299-0.51c0.081-0.133,0.153-0.232,0.218-0.301
			c0.063-0.075,0.123-0.119,0.18-0.146c0.056-0.025,0.117-0.039,0.184-0.039c0.024,0,0.05,0.002,0.076,0.01
			c0.025,0.004,0.046,0.008,0.061,0.013c0.019,0.005,0.039,0.01,0.053,0.017l0.115,0.533c-0.031-0.004-0.061-0.01-0.093-0.014
			c-0.024-0.006-0.056-0.011-0.088-0.015c-0.033-0.004-0.062-0.009-0.088-0.009c-0.208,0-0.367,0.037-0.474,0.117
			c-0.107,0.075-0.204,0.192-0.291,0.344l-0.191,0.337l1.263,2.073l0.459,0.113v0.08h-1.547v-0.08l0.422-0.113L79.335,76.182z"/>
		<path fill="#231F20" d="M82.712,74.234c0.188,0,0.371,0.043,0.546,0.129c0.176,0.082,0.332,0.207,0.468,0.367
			c0.135,0.162,0.242,0.357,0.321,0.59c0.078,0.232,0.119,0.497,0.119,0.791c0,0.299-0.041,0.561-0.119,0.795
			c-0.08,0.232-0.187,0.428-0.321,0.588c-0.137,0.161-0.292,0.285-0.468,0.366c-0.175,0.087-0.358,0.13-0.546,0.13
			c-0.195,0-0.378-0.043-0.552-0.13c-0.173-0.081-0.329-0.205-0.463-0.366c-0.137-0.16-0.243-0.355-0.321-0.588
			c-0.08-0.234-0.119-0.496-0.119-0.795c0-0.294,0.039-0.559,0.119-0.791c0.078-0.232,0.185-0.428,0.321-0.59
			c0.134-0.16,0.29-0.285,0.463-0.367C82.334,74.277,82.517,74.234,82.712,74.234z M82.712,74.352c-0.088,0-0.176,0.028-0.265,0.088
			c-0.088,0.059-0.171,0.155-0.244,0.291c-0.075,0.137-0.135,0.314-0.184,0.541c-0.049,0.223-0.072,0.506-0.072,0.84
			c0,0.34,0.024,0.619,0.072,0.842c0.049,0.229,0.109,0.406,0.184,0.541c0.073,0.136,0.156,0.234,0.244,0.291
			c0.089,0.059,0.177,0.09,0.265,0.09c0.087,0,0.175-0.03,0.264-0.09c0.089-0.057,0.172-0.155,0.246-0.291
			c0.073-0.135,0.135-0.313,0.183-0.541c0.05-0.223,0.074-0.502,0.074-0.842c0-0.334-0.024-0.617-0.074-0.84
			c-0.048-0.227-0.11-0.404-0.183-0.541c-0.074-0.136-0.156-0.232-0.246-0.291C82.887,74.38,82.799,74.352,82.712,74.352z"/>
		<path fill="#231F20" d="M84.511,74.352h1.071l1.265,2.778l1.072-2.778h1.034v0.076l-0.461,0.115v3.139l0.461,0.113v0.08h-1.494
			v-0.08l0.422-0.113v-2.796l-1.194,3.104h-0.115l-1.409-3.104v2.72l0.497,0.189v0.08h-1.148v-0.08l0.498-0.189v-3.026l-0.498-0.151
			V74.352z"/>
		<path fill="#231F20" d="M89.296,74.352h3.446v0.076l-0.459,0.115v3.139l0.459,0.113v0.08h-1.493v-0.08l0.421-0.113v-3.177h-1.303
			v3.177l0.423,0.113v0.08h-1.494v-0.08l0.46-0.113v-3.139l-0.46-0.115V74.352z"/>
		<path fill="#231F20" d="M93.239,74.352h2.833v0.076l-0.46,0.115v3.139l0.46,0.113v0.08H94.54v-0.08l0.46-0.113v-3.177h-1.11v1.071
			c0,0.514-0.022,0.934-0.065,1.257c-0.043,0.319-0.103,0.571-0.177,0.745c-0.074,0.178-0.159,0.297-0.256,0.355
			c-0.098,0.064-0.2,0.094-0.307,0.094c-0.031,0-0.059-0.002-0.084-0.004c-0.025-0.004-0.051-0.008-0.077-0.01
			c-0.025-0.006-0.049-0.016-0.069-0.024l-0.114-0.539c0.025,0.012,0.051,0.018,0.077,0.022c0.025,0.009,0.051,0.011,0.076,0.013
			c0.025,0.006,0.052,0.006,0.077,0.006c0.106,0,0.206-0.029,0.298-0.078c0.092-0.051,0.173-0.149,0.241-0.289
			c0.069-0.145,0.125-0.34,0.164-0.585c0.04-0.251,0.062-0.571,0.062-0.964v-0.997l-0.498-0.151V74.352z"/>
		<path fill="#231F20" d="M97.183,76.111c0,0.327,0.023,0.6,0.072,0.818c0.049,0.223,0.113,0.398,0.192,0.533
			c0.079,0.137,0.169,0.23,0.268,0.287c0.099,0.059,0.203,0.087,0.31,0.087c0.133,0,0.258-0.028,0.376-0.079
			c0.116-0.051,0.221-0.118,0.313-0.205c0.092-0.09,0.167-0.191,0.226-0.315c0.06-0.12,0.098-0.253,0.119-0.396h0.115
			c-0.021,0.165-0.065,0.313-0.135,0.454c-0.069,0.143-0.157,0.263-0.264,0.366c-0.106,0.099-0.231,0.18-0.372,0.241
			c-0.14,0.057-0.291,0.088-0.456,0.088c-0.193,0-0.377-0.043-0.55-0.13c-0.174-0.081-0.329-0.205-0.464-0.366
			c-0.137-0.16-0.243-0.355-0.321-0.588c-0.08-0.234-0.119-0.496-0.119-0.795c0-0.305,0.039-0.575,0.115-0.81
			c0.076-0.233,0.177-0.431,0.303-0.585c0.124-0.156,0.27-0.275,0.436-0.357c0.166-0.082,0.34-0.125,0.524-0.125
			c0.185,0,0.359,0.043,0.525,0.125c0.165,0.082,0.311,0.201,0.437,0.357c0.124,0.154,0.226,0.352,0.302,0.585
			c0.077,0.234,0.114,0.505,0.114,0.81H97.183z M97.871,74.352c-0.077,0-0.153,0.023-0.229,0.072
			c-0.078,0.048-0.148,0.137-0.215,0.257c-0.066,0.123-0.121,0.29-0.165,0.493c-0.043,0.207-0.071,0.471-0.08,0.787h1.377
			c-0.01-0.316-0.037-0.58-0.081-0.787c-0.042-0.203-0.098-0.37-0.163-0.493c-0.067-0.12-0.139-0.209-0.216-0.257
			C98.024,74.375,97.947,74.352,97.871,74.352z"/>
		<path fill="#231F20" d="M101.041,76.182l-0.337,0.582v0.918l0.421,0.113v0.08h-1.493v-0.08l0.459-0.113v-3.139l-0.459-0.115
			v-0.076h1.57v0.076l-0.498,0.115v1.953l0.69-1.225c0.118-0.211,0.216-0.379,0.298-0.51c0.082-0.133,0.155-0.232,0.22-0.301
			c0.063-0.075,0.122-0.119,0.179-0.146c0.055-0.025,0.117-0.039,0.184-0.039c0.024,0,0.052,0.002,0.076,0.01
			c0.025,0.004,0.046,0.008,0.062,0.013c0.02,0.005,0.037,0.01,0.053,0.017l0.115,0.533c-0.031-0.004-0.061-0.01-0.093-0.014
			c-0.024-0.006-0.055-0.011-0.088-0.015c-0.033-0.004-0.062-0.009-0.088-0.009c-0.208,0-0.367,0.037-0.474,0.117
			c-0.108,0.075-0.205,0.192-0.292,0.344l-0.191,0.337l1.265,2.073l0.458,0.113v0.08h-1.546v-0.08l0.42-0.113L101.041,76.182z"/>
		<path fill="#231F20" d="M104.456,74.388c-0.097,0-0.193,0.03-0.288,0.089c-0.094,0.061-0.18,0.154-0.256,0.289
			c-0.076,0.134-0.138,0.309-0.187,0.528c-0.05,0.219-0.073,0.493-0.073,0.817c0,0.327,0.023,0.6,0.073,0.818
			c0.048,0.223,0.114,0.398,0.194,0.533c0.082,0.137,0.175,0.23,0.28,0.287c0.104,0.059,0.215,0.087,0.332,0.087
			c0.134,0,0.258-0.028,0.376-0.079c0.117-0.051,0.222-0.118,0.313-0.205c0.093-0.09,0.168-0.191,0.227-0.315
			c0.06-0.12,0.098-0.253,0.119-0.396h0.115c-0.021,0.165-0.065,0.313-0.135,0.454c-0.068,0.143-0.156,0.263-0.263,0.366
			c-0.106,0.099-0.231,0.18-0.371,0.241c-0.141,0.057-0.293,0.088-0.456,0.088c-0.199,0-0.389-0.043-0.57-0.13
			c-0.182-0.081-0.341-0.205-0.479-0.366c-0.138-0.16-0.247-0.355-0.325-0.588c-0.08-0.234-0.119-0.496-0.119-0.795
			c0-0.294,0.039-0.559,0.119-0.791c0.079-0.232,0.185-0.428,0.317-0.59c0.134-0.16,0.284-0.285,0.451-0.367
			c0.168-0.086,0.345-0.129,0.529-0.129c0.121,0,0.23,0.023,0.324,0.063c0.096,0.044,0.175,0.086,0.242,0.13
			c0.076,0.057,0.142,0.119,0.2,0.192c0.02-0.076,0.061-0.147,0.125-0.211c0.063-0.066,0.123-0.112,0.18-0.133h0.115
			c-0.01,0.066-0.019,0.136-0.023,0.207c-0.004,0.061-0.009,0.126-0.012,0.198c-0.002,0.073-0.003,0.141-0.003,0.205
			c0,0.077,0.001,0.157,0.003,0.234c0.003,0.081,0.007,0.151,0.012,0.212c0.005,0.07,0.013,0.141,0.023,0.207h-0.115
			c-0.097-0.367-0.238-0.653-0.424-0.852C104.84,74.49,104.65,74.388,104.456,74.388z"/>
	</g>
</g>
</svg>
