<?xml version="1.0" encoding="utf-8"?>
<!-- Generator: Adobe Illustrator 17.0.1, SVG Export Plug-In . SVG Version: 6.00 Build 0)  -->
<!DOCTYPE svg PUBLIC "-//W3C//DTD SVG 1.0//EN" "http://www.w3.org/TR/2001/REC-SVG-20010904/DTD/svg10.dtd">
<svg version="1.0" id="Layer_1" xmlns="http://www.w3.org/2000/svg" xmlns:xlink="http://www.w3.org/1999/xlink" x="0px" y="0px"
	 width="138.747px" height="91.354px" viewBox="0 0 138.747 91.354" enable-background="new 0 0 138.747 91.354"
	 xml:space="preserve">
<g>
	<path fill="#353635" d="M110.353,11.776c-0.202,0.374-0.41,0.745-0.625,1.115c16.8,7.791,27.717,20.314,27.717,34.406
		c0,23.575-30.535,42.755-68.07,42.755c-37.535,0-68.072-19.18-68.072-42.755c0-23.572,30.537-42.75,68.072-42.75
		c0.201,0,0.4,0.004,0.601,0.004c0.14-0.434,0.288-0.867,0.444-1.295c-0.348-0.007-0.694-0.012-1.045-0.012
		C31.121,3.245,0,23.007,0,47.298c0,24.294,31.121,44.057,69.374,44.057c38.252,0,69.373-19.763,69.373-44.057
		C138.747,32.734,127.557,19.803,110.353,11.776z"/>
	<path fill="#353635" d="M30.432,53.202c1.481,0,2.789-0.289,3.924-0.867c1.133-0.578,2.005-1.34,2.617-2.28
		c0.609-0.94,0.914-1.936,0.914-2.985c0-0.449-0.047-0.836-0.139-1.158c-0.556-1.896-1.959-3.187-4.213-3.863l0.648-0.395
		c0.339-0.217,0.698-0.461,1.076-0.73c0.379-0.269,0.676-0.49,0.893-0.659l0.764-0.627c-0.602-0.321-1.035-0.602-1.298-0.833
		c-0.725-0.537-1.527-1.344-2.406-2.407c-1.174,1.02-2.593,2.183-4.26,3.497c-0.264-0.512-0.502-0.896-0.718-1.16
		c-0.694-0.848-1.566-1.496-2.616-1.944c-0.477-0.136-0.833-0.231-1.063-0.278l-4.562,2.641c0.818-0.187,1.451-0.275,1.899-0.275
		c1.419,0,2.546,0.388,3.378,1.169c0.834,0.778,1.25,1.784,1.25,3.021c0,1.062-0.289,1.965-0.868,2.707
		c-0.579,0.742-1.277,1.311-2.095,1.715c-0.276,0.152-0.608,0.291-0.994,0.414c-1.02,0.325-2.054,0.58-3.103,0.766l0.14,0.484
		c1.974-0.385,3.518-0.766,4.629-1.147c1.112-0.373,1.999-0.831,2.662-1.364c0.663-0.529,1.25-1.245,1.759-2.141
		c0.647-0.23,1.173-0.349,1.573-0.349c0.649,0,1.351,0.155,2.107,0.464c0.756,0.313,1.438,0.755,2.049,1.343
		c0.609,0.587,1.029,1.272,1.262,2.061c0.077,0.31,0.114,0.602,0.114,0.88c0,0.68-0.177,1.313-0.531,1.896
		c-0.601,0.99-1.519,1.484-2.755,1.484c-1.76,0-3.696-0.796-5.81-2.385c-0.741-0.559-1.42-0.975-2.038-1.25
		c-1.312,0.369-2.925,0.724-4.838,1.063l0.116,0.465l0.786-0.116c0.078,0,0.255,0.034,0.532,0.093
		c0.601,0.279,1.321,0.635,2.154,1.064C25.855,52.538,28.209,53.202,30.432,53.202L30.432,53.202L30.432,53.202z M28.95,43.829
		c0.231-0.929,0.347-1.582,0.347-1.969c0-0.355-0.069-0.84-0.208-1.457l1.851-1.416c0.417-0.027,0.956,0.234,1.621,0.79
		c0.108,0.074,0.27,0.206,0.485,0.396c0.34,0.29,0.703,0.585,1.089,0.881c-1.297,0.891-2.547,1.617-3.751,2.174L28.95,43.829
		L28.95,43.829z M44.899,53.133l4.305-2.685l-0.323-0.465c-0.278,0.188-0.501,0.326-0.671,0.418
		c-0.617,0.263-1.072,0.393-1.366,0.393c-0.648,0-1.18-0.393-1.597-1.178c-0.278-0.804-0.439-1.39-0.487-1.762l4.769-2.799
		c-1.328-1.699-2.145-2.857-2.455-3.473c-0.802,0.369-1.601,0.775-2.395,1.214c-0.796,0.438-1.285,0.76-1.47,0.962
		c-0.402,0.416-0.648,1.019-0.74,1.806c-0.094,0.788-0.139,1.62-0.139,2.499c0,1.529,0.332,2.726,0.994,3.59
		c0.541,0.586,0.895,0.947,1.065,1.086C44.59,52.925,44.76,53.057,44.899,53.133L44.899,53.133L44.899,53.133z M44.69,47.276v-0.485
		c-0.016-0.14-0.022-0.295-0.022-0.462c0-0.188,0.015-0.479,0.047-0.881c0.061-0.65,0.169-1.373,0.324-2.176
		c0.431,0.631,1.096,1.514,1.99,2.639L44.69,47.276L44.69,47.276z M54.065,57.253c0.37-0.557,0.639-1.191,0.811-1.908
		c0.17-0.719,0.363-1.848,0.578-3.393c0.881,0.341,1.761,0.711,2.64,1.113c0.974-0.865,1.852-1.746,2.639-2.639
		c0.324-0.372,0.588-0.721,0.787-1.043c0.587-0.954,0.88-1.967,0.88-3.031c0-1.438-0.502-2.67-1.505-3.705
		c-0.386-0.387-0.871-0.743-1.457-1.064c-1.283,1.373-2.539,2.652-3.774,3.842l-0.023-1.365c0-0.57-0.063-1.018-0.186-1.343
		c-0.123-0.325-0.288-0.571-0.497-0.741c-0.208-0.17-0.497-0.338-0.867-0.51c-0.141,0.124-0.495,0.438-1.066,0.949
		c-0.2,0.187-0.608,0.533-1.225,1.041c0.556,0.204,0.94,0.48,1.158,0.836c0.214,0.354,0.324,0.879,0.324,1.572v3.752l-1.228,1.25
		l1.228,0.277c0,2.7,0.185,4.576,0.555,5.625C53.897,56.936,53.974,57.1,54.065,57.253L54.065,57.253L54.065,57.253z M59.366,51.143
		c-0.878-0.447-1.516-0.764-1.908-0.951c-0.394-0.184-0.846-0.377-1.354-0.576l-0.441-0.164l-0.023-3.264l2.407-2.314
		c0.278,0.076,0.441,0.141,0.486,0.186c0.155,0,0.394,0.169,0.718,0.512c0.664,0.66,0.995,1.725,0.995,3.191
		c0,0.926-0.13,1.736-0.394,2.43C59.776,50.426,59.614,50.743,59.366,51.143L59.366,51.143L59.366,51.143z M79.113,53.366
		c0.493-0.559,1.211-1.28,2.152-2.178c-0.541-0.322-0.883-0.631-1.029-0.926c-0.147-0.293-0.22-0.73-0.22-1.316v-7.199
		c-1.036,0.477-1.814,0.822-2.339,1.041l-0.023,7.176l-1.597,1.156l-1.273-1.02c-0.016-0.012-0.022-0.046-0.022-0.092l-0.094-0.207
		V49.78L74.6,48.643v-6.99c-1.034,0.478-1.814,0.826-2.339,1.04l-0.022,7.177l-1.598,1.154l-1.366-1.109v-5.533
		c0-1.094-0.177-1.888-0.533-2.381c-0.092-0.108-0.239-0.254-0.439-0.441c-1.157,0.803-2.216,1.426-3.172,1.874l0.255,0.486
		l0.834-0.39c0.153,0.057,0.315,0.212,0.486,0.459c0.169,0.246,0.255,0.75,0.255,1.503v2.663c0,0.959-0.171,1.631-0.51,2.016
		c-0.138,0.186-0.364,0.376-0.671,0.578c1.096,0.693,2.067,1.514,2.917,2.453c0.94-0.771,1.875-1.487,2.801-2.15
		c0.972,0.663,1.844,1.41,2.615,2.244c1.127-0.91,2.3-1.798,3.519-2.662c0.016,0.986,0.225,1.69,0.626,2.105
		C78.642,53.079,78.928,53.29,79.113,53.366L79.113,53.366L79.113,53.366z M92.469,53.274c0.494-0.557,1.212-1.283,2.153-2.178
		c-0.542-0.322-0.883-0.635-1.029-0.926c-0.147-0.292-0.22-0.733-0.22-1.32v-7.197c-1.035,0.478-1.814,0.826-2.338,1.04
		l-0.024,7.177l-0.578,0.416c-0.2,0.171-0.54,0.416-1.02,0.738l-1.365-1.109v-5.533c0-1.094-0.177-1.888-0.531-2.381
		c-0.093-0.108-0.239-0.254-0.441-0.441c-1.157,0.803-2.214,1.426-3.171,1.874l0.255,0.486l0.833-0.39
		c0.154,0.057,0.317,0.212,0.485,0.459c0.171,0.246,0.256,0.75,0.256,1.503v2.663c0,0.959-0.17,1.631-0.51,2.016
		c-0.139,0.186-0.362,0.376-0.671,0.578c1.096,0.693,2.067,1.514,2.916,2.453c1.126-0.909,2.3-1.797,3.519-2.662
		c0.016,0.988,0.223,1.689,0.624,2.107C91.999,52.987,92.284,53.195,92.469,53.274L92.469,53.274L92.469,53.274z M98.649,53.155
		c0.679-0.352,1.466-0.736,2.361-1.156l0.023-4.951l2.917,0.553l-0.023,2.129c0,0.201,0.004,0.361,0.012,0.477
		c0.007,0.117,0.011,0.188,0.011,0.221c0.016,0.986,0.224,1.69,0.625,2.106c0.386,0.338,0.672,0.547,0.857,0.623
		c0.494-0.555,1.211-1.281,2.153-2.176c-0.541-0.322-0.884-0.633-1.03-0.925c-0.147-0.293-0.219-0.735-0.219-1.321v-7.195
		c-1.035,0.479-1.814,0.824-2.338,1.041l-0.049,4.212l-2.917-0.511c0-1.988-0.036-3.113-0.115-3.38
		c-0.078-0.214-0.247-0.44-0.509-0.669c-0.263-0.23-0.571-0.447-0.926-0.648c-0.817,0.819-1.536,1.552-2.152,2.201
		c0.339,0.152,0.602,0.343,0.787,0.575c0.354,0.446,0.531,1.089,0.531,1.921V53.155L98.649,53.155z M117.584,53.318l2.271-2.081
		c-0.602-0.343-0.997-0.604-1.182-0.789c-0.277-0.246-0.539-0.59-0.787-1.029c-0.246-0.44-0.37-0.916-0.37-1.421
		c0-1.146,0.41-2.195,1.228-3.153c0.493-0.509,0.849-0.856,1.065-1.041c-0.865-0.402-1.968-1.18-3.312-2.338
		c-0.864,0.636-1.42,1.028-1.666,1.182c-0.85,0.587-1.49,1.051-1.922,1.387c-0.371,0.295-0.679,0.566-0.926,0.811
		c-1.128,1.144-1.69,2.356-1.69,3.637c0,1.265,0.502,2.422,1.504,3.471c0.341,0.356,0.84,0.759,1.505,1.203
		c1.004-0.877,1.813-1.664,2.431-2.361C116.319,51.799,116.938,52.639,117.584,53.318L117.584,53.318L117.584,53.318z
		 M114.831,50.956c-0.743-0.428-1.413-1.063-2.015-1.896c-0.37-0.512-0.586-0.963-0.647-1.363c-0.047-0.263-0.07-0.495-0.07-0.693
		c0-0.234,0.023-0.443,0.07-0.63c0.14-0.554,0.416-1.063,0.833-1.528l0.439-0.438c0.525-0.464,0.957-0.82,1.296-1.067l2.917,2.038
		c-0.431,0.865-0.794,1.813-1.087,2.849c-0.218,0.602-0.471,1.126-0.763,1.575C115.495,50.262,115.17,50.65,114.831,50.956
		L114.831,50.956L114.831,50.956z"/>
	<path fill="#353635" d="M23.728,60.919c-0.069-0.17-0.12-0.261-0.202-0.371c-0.249-0.348-0.637-0.533-1.117-0.533
		c-0.885,0-1.462,0.653-1.462,1.657c0,0.989,0.584,1.62,1.492,1.62c0.467,0,0.838-0.169,1.092-0.486
		c0.1-0.127,0.157-0.238,0.237-0.447l-0.434-0.117c-0.04,0.145-0.07,0.215-0.127,0.295c-0.15,0.236-0.422,0.373-0.752,0.373
		c-0.648,0-1.064-0.484-1.064-1.249c0-0.773,0.407-1.272,1.041-1.272c0.429,0,0.706,0.213,0.874,0.663L23.728,60.919z
		 M30.042,61.721c-0.011-0.154-0.035-0.381-0.041-0.445c-0.117-0.775-0.654-1.254-1.4-1.254c-0.866,0-1.434,0.646-1.434,1.638
		c0,1.001,0.573,1.637,1.481,1.637c0.421,0,0.775-0.14,1.046-0.406c0.133-0.134,0.208-0.235,0.318-0.479l-0.404-0.154
		c-0.163,0.438-0.486,0.667-0.955,0.667c-0.347,0-0.63-0.135-0.815-0.392c-0.156-0.207-0.214-0.423-0.23-0.811H30.042z
		 M27.624,61.356c0.034-0.217,0.063-0.32,0.144-0.464c0.175-0.327,0.47-0.505,0.823-0.505c0.276,0,0.503,0.085,0.684,0.259
		c0.183,0.181,0.27,0.39,0.304,0.71H27.624z M36.639,63.213c-0.028-0.224-0.04-0.374-0.04-0.646v-1.826
		c0-0.233,0.012-0.412,0.035-0.643h-0.55c-0.011,0.084-0.099,0.316-0.156,0.438l-1.071,2.078l-1.075-2.082
		c-0.063-0.121-0.145-0.336-0.156-0.434h-0.556c0.023,0.259,0.035,0.426,0.035,0.65v1.818c0,0.254-0.012,0.417-0.04,0.646h0.491
		c-0.028-0.218-0.041-0.38-0.041-0.646V61.13c0-0.159-0.005-0.257-0.017-0.4c0.047,0.138,0.075,0.205,0.133,0.321l0.844,1.616
		c0.111,0.213,0.18,0.385,0.221,0.546h0.313c0.033-0.147,0.108-0.329,0.225-0.542l0.844-1.62c0.053-0.102,0.082-0.178,0.134-0.321
		c-0.012,0.124-0.018,0.223-0.018,0.4v1.438c0,0.227-0.011,0.404-0.04,0.646H36.639z"/>
	<path fill="#353635" d="M42.426,61.721c-0.012-0.154-0.035-0.381-0.041-0.445c-0.114-0.775-0.653-1.254-1.399-1.254
		c-0.868,0-1.436,0.646-1.436,1.638c0,1.001,0.572,1.637,1.481,1.637c0.422,0,0.775-0.14,1.046-0.406
		c0.134-0.134,0.209-0.235,0.319-0.479l-0.405-0.154c-0.162,0.438-0.486,0.667-0.954,0.667c-0.347,0-0.63-0.135-0.816-0.392
		c-0.156-0.207-0.213-0.423-0.23-0.811H42.426z M40.009,61.356c0.034-0.217,0.063-0.32,0.144-0.464
		c0.174-0.327,0.468-0.505,0.821-0.505c0.279,0,0.504,0.085,0.684,0.259c0.184,0.181,0.272,0.39,0.307,0.71H40.009z M47.745,59.465
		c-0.051,0.223-0.214,0.32-0.503,0.32c-0.156,0-0.283-0.035-0.376-0.105c-0.064-0.054-0.093-0.098-0.122-0.215H46.38
		c0.034,0.146,0.069,0.223,0.144,0.307c0.157,0.192,0.429,0.303,0.712,0.303c0.271,0,0.526-0.101,0.694-0.268
		c0.099-0.1,0.138-0.181,0.179-0.342H47.745z M45.865,60.098c0.029,0.248,0.04,0.414,0.04,0.645v1.824
		c0,0.243-0.011,0.417-0.045,0.646h0.52c0.063-0.125,0.134-0.241,0.243-0.392l1.388-1.869c0.064-0.079,0.094-0.131,0.139-0.236
		c-0.011,0.115-0.011,0.171-0.011,0.342v1.51c0,0.279-0.012,0.445-0.041,0.646h0.508c-0.027-0.229-0.04-0.384-0.04-0.646v-1.824
		c0-0.254,0.013-0.409,0.035-0.645h-0.492c-0.065,0.134-0.127,0.23-0.248,0.396l-1.365,1.857c-0.065,0.08-0.116,0.167-0.18,0.283
		c0.012-0.19,0.019-0.27,0.019-0.395v-1.498c0-0.254,0.011-0.426,0.039-0.645H45.865z M52.607,63.213
		c-0.03-0.229-0.04-0.38-0.04-0.646v-0.805h1.837v0.805c0,0.227-0.01,0.412-0.039,0.646h0.508c-0.027-0.229-0.041-0.38-0.041-0.646
		v-1.824c0-0.275,0.013-0.426,0.041-0.645h-0.508c0.029,0.23,0.039,0.414,0.039,0.645v0.635h-1.837v-0.635
		c0-0.264,0.01-0.414,0.04-0.645h-0.51c0.03,0.248,0.04,0.414,0.04,0.645v1.824c0,0.243-0.01,0.398-0.04,0.646H52.607z
		 M58.539,61.299v-0.557c0-0.271,0.012-0.409,0.04-0.645h-0.503c0.029,0.254,0.041,0.42,0.041,0.645v1.832
		c0,0.254-0.012,0.433-0.041,0.656c0.208-0.01,0.365-0.019,0.625-0.019h0.838c0.684,0,1.065-0.345,1.065-0.956
		c0-0.609-0.387-0.957-1.07-0.957H58.539z M58.539,62.839v-1.161h0.948c0.474,0,0.684,0.179,0.684,0.583
		c0,0.406-0.203,0.578-0.672,0.578H58.539z M60.894,60.098c0.028,0.24,0.04,0.41,0.04,0.645v1.832c0,0.235-0.012,0.409-0.04,0.638
		h0.503c-0.029-0.224-0.04-0.362-0.04-0.638v-1.832c0-0.264,0.011-0.414,0.04-0.645H60.894z"/>
	<path fill="#353635" d="M66.38,59.465c-0.052,0.223-0.213,0.32-0.504,0.32c-0.155,0-0.283-0.035-0.376-0.105
		c-0.063-0.054-0.091-0.098-0.122-0.215h-0.363c0.034,0.146,0.069,0.223,0.145,0.307c0.156,0.192,0.428,0.303,0.71,0.303
		c0.272,0,0.527-0.101,0.695-0.268c0.1-0.1,0.138-0.181,0.178-0.342H66.38z M64.501,60.098c0.028,0.248,0.039,0.414,0.039,0.645
		v1.824c0,0.243-0.012,0.417-0.045,0.646h0.52c0.063-0.125,0.132-0.241,0.242-0.392l1.388-1.869
		c0.064-0.079,0.093-0.131,0.138-0.236c-0.011,0.115-0.011,0.171-0.011,0.342v1.51c0,0.279-0.012,0.445-0.04,0.646h0.509
		c-0.028-0.229-0.04-0.384-0.04-0.646v-1.824c0-0.254,0.011-0.409,0.034-0.645h-0.492c-0.063,0.134-0.127,0.23-0.248,0.396
		l-1.365,1.857c-0.063,0.08-0.115,0.167-0.18,0.283c0.013-0.19,0.019-0.27,0.019-0.395v-1.498c0-0.254,0.011-0.426,0.04-0.645
		H64.501z"/>
	<path fill="#353635" d="M73.533,60.098h-0.462c0.029,0.195,0.041,0.352,0.041,0.611v2.599c0,0.219-0.013,0.388-0.041,0.597h0.51
		c-0.031-0.199-0.041-0.355-0.041-0.604v-0.483c0-0.139-0.007-0.199-0.024-0.385c0.249,0.373,0.671,0.58,1.186,0.58
		c0.879,0,1.43-0.574,1.43-1.492c0-0.914-0.545-1.481-1.424-1.481c-0.521,0-0.948,0.206-1.192,0.592
		c0.012-0.089,0.018-0.164,0.018-0.234V60.098z M75.686,61.52c0,0.693-0.394,1.127-1.025,1.127c-0.676,0-1.11-0.445-1.11-1.135
		c0-0.652,0.458-1.107,1.117-1.107C75.297,60.405,75.686,60.827,75.686,61.52L75.686,61.52z M82.126,61.721
		c-0.012-0.154-0.035-0.381-0.04-0.445c-0.115-0.775-0.653-1.254-1.401-1.254c-0.867,0-1.434,0.646-1.434,1.638
		c0,1.001,0.573,1.637,1.479,1.637c0.424,0,0.776-0.14,1.049-0.406c0.132-0.134,0.207-0.235,0.317-0.479l-0.406-0.154
		c-0.163,0.438-0.486,0.667-0.953,0.667c-0.347,0-0.632-0.135-0.816-0.392c-0.157-0.207-0.214-0.423-0.231-0.811H82.126z
		 M79.709,61.356c0.035-0.217,0.064-0.32,0.145-0.464c0.17-0.327,0.467-0.505,0.821-0.505c0.277,0,0.503,0.085,0.681,0.259
		c0.187,0.181,0.274,0.39,0.308,0.71H79.709z M88.313,60.919c-0.068-0.17-0.121-0.261-0.202-0.371
		c-0.25-0.348-0.637-0.533-1.116-0.533c-0.885,0-1.464,0.653-1.464,1.657c0,0.989,0.585,1.62,1.492,1.62
		c0.469,0,0.838-0.169,1.094-0.486c0.098-0.127,0.156-0.238,0.238-0.447l-0.436-0.117c-0.04,0.145-0.069,0.215-0.126,0.295
		c-0.15,0.236-0.423,0.373-0.753,0.373c-0.647,0-1.065-0.484-1.065-1.249c0-0.773,0.405-1.272,1.041-1.272
		c0.428,0,0.705,0.213,0.874,0.663L88.313,60.919z M93.44,63.213c-0.028-0.229-0.039-0.384-0.039-0.646v-2.082h0.514
		c0.3,0,0.438,0.004,0.647,0.033v-0.456c-0.197,0.023-0.357,0.036-0.642,0.036h-1.469c-0.291,0-0.434-0.006-0.642-0.036v0.456
		c0.202-0.029,0.352-0.033,0.648-0.033h0.508v2.082c0,0.289-0.011,0.445-0.04,0.646H93.44z"/>
	<path fill="#353635" d="M99.327,63.292c0.932,0,1.531-0.648,1.531-1.641c0-0.993-0.595-1.629-1.538-1.629
		c-0.942,0-1.544,0.636-1.544,1.638C97.776,62.661,98.378,63.292,99.327,63.292L99.327,63.292z M99.332,60.387
		c0.665,0,1.082,0.485,1.082,1.264c0,0.781-0.417,1.263-1.094,1.263c-0.675,0-1.099-0.481-1.099-1.267
		C98.222,60.867,98.646,60.387,99.332,60.387L99.332,60.387z M104.669,60.098h-0.464c0.029,0.195,0.041,0.352,0.041,0.611v2.599
		c0,0.219-0.012,0.388-0.041,0.597h0.509c-0.027-0.199-0.039-0.355-0.039-0.604v-0.483c0-0.139-0.006-0.199-0.024-0.385
		c0.249,0.373,0.67,0.58,1.186,0.58c0.878,0,1.428-0.574,1.428-1.492c0-0.914-0.542-1.481-1.421-1.481
		c-0.523,0-0.95,0.206-1.192,0.592c0.013-0.089,0.018-0.164,0.018-0.234V60.098z M106.819,61.52c0,0.693-0.393,1.127-1.023,1.127
		c-0.677,0-1.109-0.445-1.109-1.135c0-0.652,0.456-1.107,1.116-1.107C106.433,60.405,106.819,60.827,106.819,61.52L106.819,61.52z
		 M112.636,63.213h0.469c-0.034-0.229-0.045-0.374-0.045-0.636v-1.625c0-0.623-0.393-0.947-1.157-0.947
		c-0.435,0-0.781,0.111-1.019,0.329c-0.144,0.129-0.22,0.249-0.324,0.516l0.452,0.099c0.058-0.174,0.103-0.256,0.179-0.336
		c0.162-0.168,0.399-0.25,0.718-0.25c0.479,0,0.727,0.203,0.727,0.596v0.337c-0.71,0.017-0.987,0.05-1.329,0.147
		c-0.538,0.152-0.827,0.484-0.827,0.95c0,0.55,0.387,0.882,1.023,0.882c0.196,0,0.405-0.043,0.601-0.117
		c0.197-0.076,0.308-0.149,0.532-0.352V63.213z M112.636,62.012c0,0.225-0.045,0.354-0.178,0.497
		c-0.226,0.241-0.59,0.404-0.926,0.404c-0.376,0-0.613-0.203-0.613-0.521c0-0.271,0.143-0.468,0.439-0.59
		c0.26-0.11,0.59-0.151,1.277-0.169V62.012z M117.192,63.213c-0.03-0.229-0.041-0.38-0.041-0.646v-0.805h1.839v0.805
		c0,0.227-0.012,0.412-0.039,0.646h0.508c-0.029-0.229-0.041-0.38-0.041-0.646v-1.824c0-0.275,0.012-0.426,0.041-0.645h-0.508
		c0.028,0.23,0.039,0.414,0.039,0.645v0.635h-1.839v-0.635c0-0.264,0.011-0.414,0.041-0.645h-0.51c0.03,0.248,0.04,0.414,0.04,0.645
		v1.824c0,0.243-0.011,0.398-0.04,0.646H117.192z"/>
	<g>
		<defs>
			<path id="SVGID_1_" d="M116.789,28.895c-0.219-0.406-2.753-2.385-2.753-2.385l-0.671-0.078c-0.337-0.419-0.667-0.845-0.998-1.271
				c-0.059-0.085-0.121-0.168-0.185-0.245c-0.01-0.01-0.018-0.016-0.025-0.025c-0.356-0.463-0.716-0.921-1.082-1.368
				c-1.203-1.456-2.388-2.932-3.629-4.356c-0.621-0.707-1.254-1.401-1.918-2.071c-0.639-0.644-1.495-1.207-2.016-1.957
				c-0.142-0.203-0.455-0.184-0.682-0.068c-0.43,0.213-0.814,0.548-1.189,0.865c-0.197,0.164-0.391,0.336-0.59,0.498
				c-0.064,0.057-0.129,0.109-0.194,0.169c-0.023,0.025-0.047,0.048-0.071,0.073c-0.698-0.703-1.438-1.371-2.213-1.979
				c-0.518-0.402-1.028-0.799-1.434-1.323c-0.421-0.548-0.737-1.17-1.073-1.779c-0.613-1.116-1.165-2.089-2.248-2.782
				c-0.296-0.188-0.708-0.033-0.944,0.275c-0.575,0.754-1.183,1.497-1.808,2.227c-0.152-0.479-0.425-0.942-0.594-1.29
				c-0.51-1.063-1.013-2.084-1.331-3.25c-0.284-1.045-0.636-2.023-1.083-2.984c-0.488-1.048-0.471-1.872-0.588-3.085
				c-0.035-0.36-0.578-0.914-0.794-0.627c-0.904,1.198-2.176,2.763-3.038,3.989c-0.864,1.232-1.619,2.525-2.485,3.75
				c-0.844,1.191-1.794,2.303-2.73,3.424c-0.481,0.576-0.967,1.147-1.456,1.718c-0.277,0.329-0.488,0.571-0.794,0.62
				c-0.298-0.347-0.647-0.652-0.932-0.9c-0.248-0.221-0.632-0.265-0.943,0.029c-1.752,1.659-3.443,3.385-5.124,5.118
				c-0.236,0.221-0.484,0.434-0.759,0.585c-0.408,0.224-1.744,0.393-2.484,0.277c-0.612,0.81-1.734,2.537-2.871,3.891
				c-1.515,1.808-2.912,3.67-4.498,5.42c-1.584,1.74-3.068,3.568-4.675,5.291c-0.019,0.02,0.004,0.043,0.022,0.025
				c0.407-0.382,0.816-0.76,1.226-1.139c0.003,0.006,0.013,0.01,0.021,0.002c0.202-0.195,0.405-0.387,0.605-0.584
				c0.846-0.783,1.686-1.57,2.496-2.393c0.282-0.271,0.822-0.713,1.447-1.211c-0.521,0.773-1.221,1.82-1.496,2.261
				c-0.269,0.436-0.488,0.692-0.624,0.834c0.695-0.644,3.722-3.436,5.228-4.585c-1.01,0.441-1.638,0.582-2.01,0.618
				c0.906-0.717,1.778-1.413,2.166-1.776c0.445-1.125,1.132-3.646,3.332-5.381c0.773,0.195,1.761,0.494,2.077,0.242
				c0.999-0.791,1.815-1.051,2.823-1.83c-1.033,1.388-3.235,4.349-3.326,4.452c-0.119,0.142-0.902,1.267-0.902,1.267l-1.189,0.195
				c0,0-0.349,1.324-0.581,1.574c-0.233,0.25,8.861-8.533,10.698-10.525c-0.271,0.519-0.527,1.045-0.831,1.547
				c-0.503,0.836-1.064,1.633-1.614,2.438c-0.012,0.018-0.007,0.027,0.001,0.039c-0.135,0.172-0.27,0.348-0.406,0.526
				c-0.01,0.014,0.006,0.028,0.019,0.014c1.736-1.747,5.038-5.525,7.071-6.934c0.282,0.249-0.96,2.28-0.693,2.556L75.55,20.6
				l6.597-6.371c-0.792,1.055-3.489,4.289-4.253,5.363c-2.427,3.132-3.666,5.17-3.666,5.17s4.329-4.301,8.02-8.209
				c0.001,0.02,0.004,0.033,0.009,0.053c-0.249,0.443-0.394,0.939-0.628,1.397c-0.338,0.659-0.808,1.271-1.263,1.852
				c-0.041,0.052,0.04,0.122,0.086,0.071c0.508-0.541,0.979-1.129,1.514-1.643c0.503-0.48,1.103-0.824,1.482-1.439
				c0.19-0.307,0.331-0.642,0.476-0.975c0.404-0.531,0.798-1.065,1.192-1.6c0.535-0.617,1.072-1.238,1.562-1.887
				c0.006-0.01-0.007-0.019-0.015-0.014c-0.703,0.719-1.496,1.297-2.259,1.934c-0.384,0.322-0.748,0.669-1.115,1.014
				c-0.021,0.02-0.044,0.041-0.067,0.063l2.745-7.386c0,0-6.362,5.343-5.031,3.859c1.332-1.48,5.225-8.533,5.401-8.332
				c0.074,0.082,1.342,1.678,1.974,3.473c0.145,0.412-0.208,1.426-0.032,1.818c0.867,1.93,2.483,2.907,2.483,2.907
				s-5.646,7.646-7.872,10.431c-0.083,0.113-0.146,0.199-0.184,0.244c0.495-0.504,5.269-5.076,6.729-6.35
				c-0.794,1.27-2.617,4.201-2.341,4.017c0.242-0.16,2.251-2.478,3.471-3.897c0.257,0.197,0.503,0.394,0.594,0.468
				c0.906,0.697,1.71,1.515,2.386,2.443c0.099,0.138,0.075,0.124,0.18-0.033c0.452-0.688,0.045-1.923,0.469-2.623
				c0.012,0.006,1.148,0.524,1.171,0.53l-0.627-2.721l-0.586-1.398l-1.676,0.963l1.403-4.139c0,0,2.183,4.234,2.334,4.365
				c0.081,0.076,2.344,1.364,3.989,2.877c0.869,1.406,2.073,2.665,2.219,2.818l0.391,0.801c-0.056-0.046-0.111-0.092-0.169-0.137
				c-1.116-0.861-2.352-1.539-3.442-2.443c-0.012-0.012-0.03,0.012-0.018,0.021c0.88,0.836,1.787,1.638,2.651,2.492
				c0.418,0.416,0.862,0.805,1.289,1.213c0.214,0.207,0.42,0.414,0.624,0.631c0.049,0.053,0.108,0.109,0.169,0.168l2.441,3.919
				l-1.567-5.256l-1.083-0.915c-0.683-0.948-1.252-1.998-1.844-3.016c0.037-0.02,0.076-0.039,0.111-0.061
				c0.06-0.007,0.122-0.015,0.182-0.024c0.42-0.042,0.931-0.512,1.183-0.222c0.428,0.502,2.694,1.91,3.156,2.376
				c0.65,0.655,0.374,1.149,0.396,1.692c-0.351-0.168-0.694-0.342-1.012-0.555c-0.006-0.004-0.014,0.004-0.009,0.008
				c0.443,0.403,0.867,0.863,1.313,1.294c0.042,0.052,0.09,0.106,0.144,0.159c0.944,0.951,1.94,1.832,2.904,2.76l2.77,2.879
				l2.437,1.709l3.166,3.607C118.604,32.817,117.005,29.298,116.789,28.895L116.789,28.895z"/>
		</defs>
		<clipPath id="SVGID_2_">
			<use xlink:href="#SVGID_1_"  overflow="visible"/>
		</clipPath>
		<rect x="46.646" y="-7.233" clip-path="url(#SVGID_2_)" fill="#353635" width="79.192" height="47.79"/>
	</g>
</g>
</svg>
